<svg xmlns="http://www.w3.org/2000/svg" xmlns:xlink="http://www.w3.org/1999/xlink" width="753" zoomAndPan="magnify" viewBox="0 0 564.75 302.999993" height="404" preserveAspectRatio="xMidYMid meet" version="1.0"><defs><g/><clipPath id="54cbcc4851"><path d="M 0 0.0664062 L 564.5 0.0664062 L 564.5 302.933594 L 0 302.933594 Z M 0 0.0664062 " clip-rule="nonzero"/></clipPath><clipPath id="ebf3d48aea"><path d="M 36 0.0664062 L 529 0.0664062 L 529 302.933594 L 36 302.933594 Z M 36 0.0664062 " clip-rule="nonzero"/></clipPath><clipPath id="52ddd9c905"><path d="M 95.636719 1.78125 L 397 1.78125 L 397 302.761719 L 95.636719 302.761719 Z M 95.636719 1.78125 " clip-rule="nonzero"/></clipPath><clipPath id="95d0638faa"><path d="M 133.589844 1.78125 L 358.800781 1.78125 C 368.867188 1.78125 378.519531 5.78125 385.636719 12.898438 C 392.753906 20.015625 396.75 29.667969 396.75 39.734375 L 396.75 264.8125 C 396.75 274.875 392.753906 284.53125 385.636719 291.648438 C 378.519531 298.765625 368.867188 302.761719 358.800781 302.761719 L 133.589844 302.761719 C 123.523438 302.761719 113.871094 298.765625 106.753906 291.648438 C 99.636719 284.53125 95.636719 274.875 95.636719 264.8125 L 95.636719 39.734375 C 95.636719 29.667969 99.636719 20.015625 106.753906 12.898438 C 113.871094 5.78125 123.523438 1.78125 133.589844 1.78125 Z M 133.589844 1.78125 " clip-rule="nonzero"/></clipPath><clipPath id="fe6756834a"><path d="M 0.636719 0.78125 L 301.769531 0.78125 L 301.769531 301.761719 L 0.636719 301.761719 Z M 0.636719 0.78125 " clip-rule="nonzero"/></clipPath><clipPath id="90811f7021"><path d="M 38.589844 0.78125 L 263.800781 0.78125 C 273.867188 0.78125 283.519531 4.78125 290.636719 11.898438 C 297.753906 19.015625 301.75 28.667969 301.75 38.734375 L 301.75 263.8125 C 301.75 273.875 297.753906 283.53125 290.636719 290.648438 C 283.519531 297.765625 273.867188 301.761719 263.800781 301.761719 L 38.589844 301.761719 C 28.523438 301.761719 18.871094 297.765625 11.753906 290.648438 C 4.636719 283.53125 0.636719 273.875 0.636719 263.8125 L 0.636719 38.734375 C 0.636719 28.667969 4.636719 19.015625 11.753906 11.898438 C 18.871094 4.78125 28.523438 0.78125 38.589844 0.78125 Z M 38.589844 0.78125 " clip-rule="nonzero"/></clipPath><clipPath id="fd1a301c2d"><rect x="0" width="302" y="0" height="302"/></clipPath><clipPath id="ce2da780a1"><path d="M 95.640625 1.78125 L 396.355469 1.78125 L 396.355469 302.5 L 95.640625 302.5 Z M 95.640625 1.78125 " clip-rule="nonzero"/></clipPath><clipPath id="036b501118"><path d="M 133.589844 1.78125 L 358.792969 1.78125 C 368.855469 1.78125 378.507812 5.78125 385.625 12.898438 C 392.742188 20.015625 396.742188 29.667969 396.742188 39.734375 L 396.742188 264.800781 C 396.742188 274.867188 392.742188 284.519531 385.625 291.636719 C 378.507812 298.753906 368.855469 302.75 358.792969 302.75 L 133.589844 302.75 C 123.527344 302.75 113.875 298.753906 106.757812 291.636719 C 99.640625 284.519531 95.640625 274.867188 95.640625 264.800781 L 95.640625 39.734375 C 95.640625 29.667969 99.640625 20.015625 106.757812 12.898438 C 113.875 5.78125 123.527344 1.78125 133.589844 1.78125 Z M 133.589844 1.78125 " clip-rule="nonzero"/></clipPath><clipPath id="a8343a3258"><rect x="0" width="493" y="0" height="303"/></clipPath></defs><g clip-path="url(#54cbcc4851)"><path fill="#ffffff" d="M 0 0.0664062 L 564.5 0.0664062 L 564.5 302.933594 L 0 302.933594 Z M 0 0.0664062 " fill-opacity="1" fill-rule="nonzero"/></g><g clip-path="url(#ebf3d48aea)"><g transform="matrix(1, 0, 0, 1, 36, -0.00000000000002115)"><g clip-path="url(#a8343a3258)"><g clip-path="url(#52ddd9c905)"><g clip-path="url(#95d0638faa)"><g transform="matrix(1, 0, 0, 1, 95, 1)"><g clip-path="url(#fd1a301c2d)"><g clip-path="url(#fe6756834a)"><g clip-path="url(#90811f7021)"><path fill="#dadb24" d="M 0.636719 0.78125 L 301.617188 0.78125 L 301.617188 301.761719 L 0.636719 301.761719 Z M 0.636719 0.78125 " fill-opacity="1" fill-rule="nonzero"/></g></g></g></g></g></g><g clip-path="url(#ce2da780a1)"><g clip-path="url(#036b501118)"><path stroke-linecap="butt" transform="matrix(0.889697, 0, 0, 0.889697, 95.640945, 1.783004)" fill="none" stroke-linejoin="miter" d="M 42.653726 -0.00197142 L 295.777081 -0.00197142 C 307.087109 -0.00197142 317.936131 4.493941 325.935693 12.493503 C 333.935255 20.493065 338.431167 31.342087 338.431167 42.656506 L 338.431167 295.626191 C 338.431167 306.94061 333.935255 317.789632 325.935693 325.789194 C 317.936131 333.788756 307.087109 338.280278 295.777081 338.280278 L 42.653726 338.280278 C 31.343698 338.280278 20.494676 333.788756 12.495114 325.789194 C 4.495552 317.789632 -0.000360035 306.94061 -0.000360035 295.626191 L -0.000360035 42.656506 C -0.000360035 31.342087 4.495552 20.493065 12.495114 12.493503 C 20.494676 4.493941 31.343698 -0.00197142 42.653726 -0.00197142 Z M 42.653726 -0.00197142 " stroke="#dadb24" stroke-width="6.740884" stroke-opacity="1" stroke-miterlimit="4"/></g></g><g fill="#0e0d09" fill-opacity="1"><g transform="translate(0.354963, 137.997686)"><g><path d="M 32.578125 0.890625 C 29.097656 0.890625 25.695312 0.410156 22.375 -0.546875 C 19.0625 -1.515625 16.023438 -2.953125 13.265625 -4.859375 C 10.503906 -6.773438 8.175781 -9.175781 6.28125 -12.0625 C 4.394531 -14.957031 3.132812 -18.332031 2.5 -22.1875 L 16.515625 -25.75 C 16.847656 -22.476562 17.78125 -19.804688 19.3125 -17.734375 C 20.851562 -15.660156 22.789062 -14.125 25.125 -13.125 C 27.46875 -12.125 30.03125 -11.625 32.8125 -11.625 C 35.625 -11.625 37.984375 -12.066406 39.890625 -12.953125 C 41.804688 -13.847656 43.265625 -15.050781 44.265625 -16.5625 C 45.265625 -18.082031 45.765625 -19.769531 45.765625 -21.625 C 45.765625 -23.664062 45.222656 -25.410156 44.140625 -26.859375 C 43.066406 -28.304688 41.628906 -29.554688 39.828125 -30.609375 C 38.035156 -31.660156 36.007812 -32.640625 33.75 -33.546875 C 31.488281 -34.460938 29.148438 -35.390625 26.734375 -36.328125 C 24.328125 -37.273438 21.992188 -38.351562 19.734375 -39.5625 C 17.472656 -40.769531 15.441406 -42.195312 13.640625 -43.84375 C 11.847656 -45.488281 10.414062 -47.46875 9.34375 -49.78125 C 8.269531 -52.101562 7.734375 -54.859375 7.734375 -58.046875 C 7.734375 -61.535156 8.378906 -64.625 9.671875 -67.3125 C 10.972656 -70 12.757812 -72.269531 15.03125 -74.125 C 17.3125 -75.976562 19.925781 -77.375 22.875 -78.3125 C 25.820312 -79.257812 28.945312 -79.734375 32.25 -79.734375 C 37.101562 -79.734375 41.625 -78.628906 45.8125 -76.421875 C 50 -74.222656 53.445312 -70.726562 56.15625 -65.9375 L 44.421875 -58.765625 C 43.054688 -61.441406 41.257812 -63.507812 39.03125 -64.96875 C 36.8125 -66.4375 34.382812 -67.171875 31.75 -67.171875 C 29.894531 -67.171875 28.21875 -66.816406 26.71875 -66.109375 C 25.21875 -65.410156 24.03125 -64.429688 23.15625 -63.171875 C 22.289062 -61.910156 21.859375 -60.441406 21.859375 -58.765625 C 21.859375 -56.921875 22.394531 -55.335938 23.46875 -54.015625 C 24.539062 -52.703125 25.972656 -51.550781 27.765625 -50.5625 C 29.566406 -49.582031 31.597656 -48.65625 33.859375 -47.78125 C 36.117188 -46.914062 38.453125 -46.007812 40.859375 -45.0625 C 43.273438 -44.113281 45.613281 -43.03125 47.875 -41.8125 C 50.132812 -40.59375 52.160156 -39.140625 53.953125 -37.453125 C 55.753906 -35.765625 57.191406 -33.734375 58.265625 -31.359375 C 59.347656 -28.984375 59.890625 -26.164062 59.890625 -22.90625 C 59.890625 -19.195312 59.175781 -15.867188 57.75 -12.921875 C 56.320312 -9.972656 54.351562 -7.46875 51.84375 -5.40625 C 49.34375 -3.351562 46.441406 -1.789062 43.140625 -0.71875 C 39.847656 0.351562 36.328125 0.890625 32.578125 0.890625 Z M 32.578125 0.890625 "/></g></g></g><g fill="#0e0d09" fill-opacity="1"><g transform="translate(63.57135, 137.997686)"><g><path d="M 10.125 0 L 10.125 -78.5625 L 24.25 -78.5625 L 24.25 -37.59375 L 62.5 -78.5625 L 81.40625 -78.5625 L 49.984375 -46.375 L 82.015625 0 L 64.4375 0 L 40.203125 -36.921875 L 24.25 -20.40625 L 24.25 0 Z M 10.125 0 "/></g></g></g><g fill="#0e0d09" fill-opacity="1"><g transform="translate(146.469881, 137.997686)"><g><path d="M 10.125 0 L 10.125 -78.5625 L 24.25 -78.5625 L 24.25 0 Z M 10.125 0 "/></g></g></g><g fill="#0e0d09" fill-opacity="1"><g transform="translate(180.830236, 137.997686)"><g><path d="M 10.125 0 L 10.125 -78.5625 L 24.25 -78.5625 L 24.25 -13.34375 L 57.828125 -13.34375 L 57.828125 0 Z M 10.125 0 "/></g></g></g><g fill="#0e0d09" fill-opacity="1"><g transform="translate(239.93229, 137.997686)"><g><path d="M 10.125 0 L 10.125 -78.5625 L 24.25 -78.5625 L 24.25 0 Z M 10.125 0 "/></g></g></g><g fill="#0e0d09" fill-opacity="1"><g transform="translate(274.292631, 137.997686)"><g><path d="M 10.125 0 L 10.125 -78.5625 L 24.25 -78.5625 L 24.25 -37.59375 L 62.5 -78.5625 L 81.40625 -78.5625 L 49.984375 -46.375 L 82.015625 0 L 64.4375 0 L 40.203125 -36.921875 L 24.25 -20.40625 L 24.25 0 Z M 10.125 0 "/></g></g></g><g fill="#0e0d09" fill-opacity="1"><g transform="translate(357.191149, 137.997686)"><g><path d="M 10.125 0 L 10.125 -78.5625 L 62.390625 -78.5625 L 62.390625 -65.609375 L 24.25 -65.609375 L 24.25 -45.765625 L 59.765625 -45.765625 L 59.765625 -32.8125 L 24.25 -32.8125 L 24.25 -13.34375 L 62.390625 -13.34375 L 62.390625 0 Z M 10.125 0 "/></g></g></g><g fill="#0e0d09" fill-opacity="1"><g transform="translate(426.412286, 137.997686)"><g><path d="M 25.75 0 L 25.75 -65.9375 L 1.109375 -65.9375 L 1.109375 -78.5625 L 64.4375 -78.5625 L 64.4375 -65.9375 L 39.875 -65.9375 L 39.875 0 Z M 25.75 0 "/></g></g></g><g fill="#000000" fill-opacity="1"><g transform="translate(11.242646, 208.455355)"><g><path d="M 8.484375 -3.296875 C 8.484375 -2.222656 8.097656 -1.378906 7.328125 -0.765625 C 6.566406 -0.148438 5.5 0.15625 4.125 0.15625 C 2.851562 0.15625 1.734375 -0.078125 0.765625 -0.546875 L 0.765625 -2.890625 C 1.566406 -2.535156 2.242188 -2.28125 2.796875 -2.125 C 3.347656 -1.976562 3.851562 -1.90625 4.3125 -1.90625 C 4.863281 -1.90625 5.285156 -2.007812 5.578125 -2.21875 C 5.878906 -2.4375 6.03125 -2.753906 6.03125 -3.171875 C 6.03125 -3.398438 5.960938 -3.601562 5.828125 -3.78125 C 5.703125 -3.96875 5.507812 -4.144531 5.25 -4.3125 C 5 -4.476562 4.488281 -4.75 3.71875 -5.125 C 3 -5.457031 2.457031 -5.78125 2.09375 -6.09375 C 1.726562 -6.40625 1.4375 -6.769531 1.21875 -7.1875 C 1.007812 -7.601562 0.90625 -8.09375 0.90625 -8.65625 C 0.90625 -9.707031 1.257812 -10.53125 1.96875 -11.125 C 2.675781 -11.726562 3.660156 -12.03125 4.921875 -12.03125 C 5.535156 -12.03125 6.117188 -11.957031 6.671875 -11.8125 C 7.234375 -11.664062 7.820312 -11.457031 8.4375 -11.1875 L 7.625 -9.234375 C 6.988281 -9.492188 6.460938 -9.675781 6.046875 -9.78125 C 5.640625 -9.882812 5.234375 -9.9375 4.828125 -9.9375 C 4.359375 -9.9375 3.992188 -9.820312 3.734375 -9.59375 C 3.484375 -9.375 3.359375 -9.085938 3.359375 -8.734375 C 3.359375 -8.515625 3.410156 -8.320312 3.515625 -8.15625 C 3.617188 -7.988281 3.78125 -7.828125 4 -7.671875 C 4.226562 -7.515625 4.757812 -7.238281 5.59375 -6.84375 C 6.707031 -6.3125 7.46875 -5.78125 7.875 -5.25 C 8.28125 -4.71875 8.484375 -4.066406 8.484375 -3.296875 Z M 8.484375 -3.296875 "/></g></g></g><g fill="#000000" fill-opacity="1"><g transform="translate(20.38474, 208.455355)"><g><path d="M 4.984375 0.15625 C 2.160156 0.15625 0.75 -1.390625 0.75 -4.484375 C 0.75 -6.023438 1.128906 -7.203125 1.890625 -8.015625 C 2.660156 -8.828125 3.765625 -9.234375 5.203125 -9.234375 C 6.242188 -9.234375 7.179688 -9.03125 8.015625 -8.625 L 7.296875 -6.703125 C 6.898438 -6.859375 6.535156 -6.988281 6.203125 -7.09375 C 5.867188 -7.195312 5.535156 -7.25 5.203125 -7.25 C 3.910156 -7.25 3.265625 -6.332031 3.265625 -4.5 C 3.265625 -2.726562 3.910156 -1.84375 5.203125 -1.84375 C 5.671875 -1.84375 6.109375 -1.90625 6.515625 -2.03125 C 6.921875 -2.15625 7.328125 -2.351562 7.734375 -2.625 L 7.734375 -0.515625 C 7.335938 -0.253906 6.929688 -0.078125 6.515625 0.015625 C 6.109375 0.109375 5.597656 0.15625 4.984375 0.15625 Z M 4.984375 0.15625 "/></g></g></g><g fill="#000000" fill-opacity="1"><g transform="translate(28.918981, 208.455355)"><g><path d="M 1.1875 -11.40625 C 1.1875 -12.21875 1.632812 -12.625 2.53125 -12.625 C 3.4375 -12.625 3.890625 -12.21875 3.890625 -11.40625 C 3.890625 -11.019531 3.773438 -10.71875 3.546875 -10.5 C 3.328125 -10.289062 2.988281 -10.1875 2.53125 -10.1875 C 1.632812 -10.1875 1.1875 -10.59375 1.1875 -11.40625 Z M 3.765625 0 L 1.296875 0 L 1.296875 -9.0625 L 3.765625 -9.0625 Z M 3.765625 0 "/></g></g></g><g fill="#000000" fill-opacity="1"><g transform="translate(33.984414, 208.455355)"><g><path d="M 5.046875 -7.484375 C 4.523438 -7.484375 4.113281 -7.316406 3.8125 -6.984375 C 3.519531 -6.648438 3.351562 -6.175781 3.3125 -5.5625 L 6.78125 -5.5625 C 6.769531 -6.175781 6.609375 -6.648438 6.296875 -6.984375 C 5.992188 -7.316406 5.578125 -7.484375 5.046875 -7.484375 Z M 5.40625 0.15625 C 3.945312 0.15625 2.804688 -0.242188 1.984375 -1.046875 C 1.160156 -1.847656 0.75 -2.988281 0.75 -4.46875 C 0.75 -5.988281 1.128906 -7.160156 1.890625 -7.984375 C 2.648438 -8.816406 3.695312 -9.234375 5.03125 -9.234375 C 6.3125 -9.234375 7.304688 -8.867188 8.015625 -8.140625 C 8.734375 -7.410156 9.09375 -6.40625 9.09375 -5.125 L 9.09375 -3.921875 L 3.25 -3.921875 C 3.28125 -3.210938 3.488281 -2.660156 3.875 -2.265625 C 4.257812 -1.867188 4.804688 -1.671875 5.515625 -1.671875 C 6.054688 -1.671875 6.570312 -1.726562 7.0625 -1.84375 C 7.550781 -1.957031 8.0625 -2.140625 8.59375 -2.390625 L 8.59375 -0.484375 C 8.15625 -0.265625 7.691406 -0.101562 7.203125 0 C 6.710938 0.101562 6.113281 0.15625 5.40625 0.15625 Z M 5.40625 0.15625 "/></g></g></g><g fill="#000000" fill-opacity="1"><g transform="translate(43.791093, 208.455355)"><g><path d="M 9.671875 0 L 7.1875 0 L 7.1875 -5.296875 C 7.1875 -5.953125 7.070312 -6.441406 6.84375 -6.765625 C 6.613281 -7.097656 6.242188 -7.265625 5.734375 -7.265625 C 5.046875 -7.265625 4.546875 -7.03125 4.234375 -6.5625 C 3.921875 -6.101562 3.765625 -5.335938 3.765625 -4.265625 L 3.765625 0 L 1.296875 0 L 1.296875 -9.0625 L 3.1875 -9.0625 L 3.515625 -7.90625 L 3.65625 -7.90625 C 3.9375 -8.34375 4.316406 -8.671875 4.796875 -8.890625 C 5.273438 -9.117188 5.828125 -9.234375 6.453125 -9.234375 C 7.503906 -9.234375 8.300781 -8.945312 8.84375 -8.375 C 9.394531 -7.8125 9.671875 -6.988281 9.671875 -5.90625 Z M 9.671875 0 "/></g></g></g><g fill="#000000" fill-opacity="1"><g transform="translate(54.700009, 208.455355)"><g><path d="M 4.984375 0.15625 C 2.160156 0.15625 0.75 -1.390625 0.75 -4.484375 C 0.75 -6.023438 1.128906 -7.203125 1.890625 -8.015625 C 2.660156 -8.828125 3.765625 -9.234375 5.203125 -9.234375 C 6.242188 -9.234375 7.179688 -9.03125 8.015625 -8.625 L 7.296875 -6.703125 C 6.898438 -6.859375 6.535156 -6.988281 6.203125 -7.09375 C 5.867188 -7.195312 5.535156 -7.25 5.203125 -7.25 C 3.910156 -7.25 3.265625 -6.332031 3.265625 -4.5 C 3.265625 -2.726562 3.910156 -1.84375 5.203125 -1.84375 C 5.671875 -1.84375 6.109375 -1.90625 6.515625 -2.03125 C 6.921875 -2.15625 7.328125 -2.351562 7.734375 -2.625 L 7.734375 -0.515625 C 7.335938 -0.253906 6.929688 -0.078125 6.515625 0.015625 C 6.109375 0.109375 5.597656 0.15625 4.984375 0.15625 Z M 4.984375 0.15625 "/></g></g></g><g fill="#000000" fill-opacity="1"><g transform="translate(63.234251, 208.455355)"><g><path d="M 5.046875 -7.484375 C 4.523438 -7.484375 4.113281 -7.316406 3.8125 -6.984375 C 3.519531 -6.648438 3.351562 -6.175781 3.3125 -5.5625 L 6.78125 -5.5625 C 6.769531 -6.175781 6.609375 -6.648438 6.296875 -6.984375 C 5.992188 -7.316406 5.578125 -7.484375 5.046875 -7.484375 Z M 5.40625 0.15625 C 3.945312 0.15625 2.804688 -0.242188 1.984375 -1.046875 C 1.160156 -1.847656 0.75 -2.988281 0.75 -4.46875 C 0.75 -5.988281 1.128906 -7.160156 1.890625 -7.984375 C 2.648438 -8.816406 3.695312 -9.234375 5.03125 -9.234375 C 6.3125 -9.234375 7.304688 -8.867188 8.015625 -8.140625 C 8.734375 -7.410156 9.09375 -6.40625 9.09375 -5.125 L 9.09375 -3.921875 L 3.25 -3.921875 C 3.28125 -3.210938 3.488281 -2.660156 3.875 -2.265625 C 4.257812 -1.867188 4.804688 -1.671875 5.515625 -1.671875 C 6.054688 -1.671875 6.570312 -1.726562 7.0625 -1.84375 C 7.550781 -1.957031 8.0625 -2.140625 8.59375 -2.390625 L 8.59375 -0.484375 C 8.15625 -0.265625 7.691406 -0.101562 7.203125 0 C 6.710938 0.101562 6.113281 0.15625 5.40625 0.15625 Z M 5.40625 0.15625 "/></g></g></g><g fill="#000000" fill-opacity="1"><g transform="translate(73.040929, 208.455355)"><g/></g></g><g fill="#000000" fill-opacity="1"><g transform="translate(77.352626, 208.455355)"><g><path d="M 11.03125 0 L 8.171875 0 L 5.0625 -5 L 4 -4.234375 L 4 0 L 1.5 0 L 1.5 -11.859375 L 4 -11.859375 L 4 -6.4375 L 5 -7.828125 L 8.203125 -11.859375 L 11 -11.859375 L 6.859375 -6.609375 Z M 11.03125 0 "/></g></g></g><g fill="#000000" fill-opacity="1"><g transform="translate(88.375008, 208.455355)"><g><path d="M 9.671875 0 L 7.1875 0 L 7.1875 -5.296875 C 7.1875 -5.953125 7.070312 -6.441406 6.84375 -6.765625 C 6.613281 -7.097656 6.242188 -7.265625 5.734375 -7.265625 C 5.046875 -7.265625 4.546875 -7.03125 4.234375 -6.5625 C 3.921875 -6.101562 3.765625 -5.335938 3.765625 -4.265625 L 3.765625 0 L 1.296875 0 L 1.296875 -9.0625 L 3.1875 -9.0625 L 3.515625 -7.90625 L 3.65625 -7.90625 C 3.9375 -8.34375 4.316406 -8.671875 4.796875 -8.890625 C 5.273438 -9.117188 5.828125 -9.234375 6.453125 -9.234375 C 7.503906 -9.234375 8.300781 -8.945312 8.84375 -8.375 C 9.394531 -7.8125 9.671875 -6.988281 9.671875 -5.90625 Z M 9.671875 0 "/></g></g></g><g fill="#000000" fill-opacity="1"><g transform="translate(99.283925, 208.455355)"><g><path d="M 3.265625 -4.546875 C 3.265625 -3.648438 3.410156 -2.972656 3.703125 -2.515625 C 4.003906 -2.054688 4.488281 -1.828125 5.15625 -1.828125 C 5.8125 -1.828125 6.28125 -2.054688 6.5625 -2.515625 C 6.851562 -2.972656 7 -3.648438 7 -4.546875 C 7 -5.441406 6.851562 -6.113281 6.5625 -6.5625 C 6.269531 -7.019531 5.796875 -7.25 5.140625 -7.25 C 4.472656 -7.25 3.992188 -7.023438 3.703125 -6.578125 C 3.410156 -6.128906 3.265625 -5.453125 3.265625 -4.546875 Z M 9.53125 -4.546875 C 9.53125 -3.066406 9.140625 -1.910156 8.359375 -1.078125 C 7.585938 -0.253906 6.507812 0.15625 5.125 0.15625 C 4.25 0.15625 3.476562 -0.03125 2.8125 -0.40625 C 2.144531 -0.789062 1.632812 -1.335938 1.28125 -2.046875 C 0.925781 -2.765625 0.75 -3.597656 0.75 -4.546875 C 0.75 -6.023438 1.132812 -7.175781 1.90625 -8 C 2.675781 -8.820312 3.765625 -9.234375 5.171875 -9.234375 C 6.035156 -9.234375 6.800781 -9.046875 7.46875 -8.671875 C 8.132812 -8.296875 8.644531 -7.753906 9 -7.046875 C 9.351562 -6.335938 9.53125 -5.503906 9.53125 -4.546875 Z M 9.53125 -4.546875 "/></g></g></g><g fill="#000000" fill-opacity="1"><g transform="translate(109.560675, 208.455355)"><g><path d="M 8.75 0 L 8.046875 -3.171875 L 7.109375 -7.171875 L 7.0625 -7.171875 L 5.40625 0 L 2.734375 0 L 0.15625 -9.0625 L 2.625 -9.0625 L 3.671875 -5.046875 C 3.835938 -4.328125 4.007812 -3.335938 4.1875 -2.078125 L 4.234375 -2.078125 C 4.253906 -2.484375 4.347656 -3.132812 4.515625 -4.03125 L 4.640625 -4.71875 L 5.765625 -9.0625 L 8.484375 -9.0625 L 9.546875 -4.71875 C 9.578125 -4.601562 9.613281 -4.425781 9.65625 -4.1875 C 9.695312 -3.957031 9.738281 -3.710938 9.78125 -3.453125 C 9.832031 -3.191406 9.875 -2.929688 9.90625 -2.671875 C 9.9375 -2.421875 9.957031 -2.222656 9.96875 -2.078125 L 10.015625 -2.078125 C 10.066406 -2.460938 10.15625 -2.992188 10.28125 -3.671875 C 10.40625 -4.359375 10.492188 -4.816406 10.546875 -5.046875 L 11.625 -9.0625 L 14.0625 -9.0625 L 11.4375 0 Z M 8.75 0 "/></g></g></g><g fill="#000000" fill-opacity="1"><g transform="translate(123.768202, 208.455355)"><g><path d="M 3.765625 0 L 1.296875 0 L 1.296875 -12.625 L 3.765625 -12.625 Z M 3.765625 0 "/></g></g></g><g fill="#000000" fill-opacity="1"><g transform="translate(128.833635, 208.455355)"><g><path d="M 5.046875 -7.484375 C 4.523438 -7.484375 4.113281 -7.316406 3.8125 -6.984375 C 3.519531 -6.648438 3.351562 -6.175781 3.3125 -5.5625 L 6.78125 -5.5625 C 6.769531 -6.175781 6.609375 -6.648438 6.296875 -6.984375 C 5.992188 -7.316406 5.578125 -7.484375 5.046875 -7.484375 Z M 5.40625 0.15625 C 3.945312 0.15625 2.804688 -0.242188 1.984375 -1.046875 C 1.160156 -1.847656 0.75 -2.988281 0.75 -4.46875 C 0.75 -5.988281 1.128906 -7.160156 1.890625 -7.984375 C 2.648438 -8.816406 3.695312 -9.234375 5.03125 -9.234375 C 6.3125 -9.234375 7.304688 -8.867188 8.015625 -8.140625 C 8.734375 -7.410156 9.09375 -6.40625 9.09375 -5.125 L 9.09375 -3.921875 L 3.25 -3.921875 C 3.28125 -3.210938 3.488281 -2.660156 3.875 -2.265625 C 4.257812 -1.867188 4.804688 -1.671875 5.515625 -1.671875 C 6.054688 -1.671875 6.570312 -1.726562 7.0625 -1.84375 C 7.550781 -1.957031 8.0625 -2.140625 8.59375 -2.390625 L 8.59375 -0.484375 C 8.15625 -0.265625 7.691406 -0.101562 7.203125 0 C 6.710938 0.101562 6.113281 0.15625 5.40625 0.15625 Z M 5.40625 0.15625 "/></g></g></g><g fill="#000000" fill-opacity="1"><g transform="translate(138.640313, 208.455355)"><g><path d="M 4.171875 0.15625 C 3.109375 0.15625 2.269531 -0.253906 1.65625 -1.078125 C 1.050781 -1.898438 0.75 -3.046875 0.75 -4.515625 C 0.75 -6.003906 1.054688 -7.160156 1.671875 -7.984375 C 2.296875 -8.816406 3.148438 -9.234375 4.234375 -9.234375 C 5.367188 -9.234375 6.238281 -8.789062 6.84375 -7.90625 L 6.921875 -7.90625 C 6.796875 -8.582031 6.734375 -9.1875 6.734375 -9.71875 L 6.734375 -12.625 L 9.21875 -12.625 L 9.21875 0 L 7.328125 0 L 6.84375 -1.171875 L 6.734375 -1.171875 C 6.171875 -0.285156 5.316406 0.15625 4.171875 0.15625 Z M 5.03125 -1.8125 C 5.664062 -1.8125 6.128906 -1.992188 6.421875 -2.359375 C 6.722656 -2.722656 6.882812 -3.347656 6.90625 -4.234375 L 6.90625 -4.5 C 6.90625 -5.46875 6.753906 -6.160156 6.453125 -6.578125 C 6.160156 -7.003906 5.675781 -7.21875 5 -7.21875 C 4.445312 -7.21875 4.015625 -6.984375 3.703125 -6.515625 C 3.398438 -6.054688 3.25 -5.378906 3.25 -4.484375 C 3.25 -3.585938 3.398438 -2.914062 3.703125 -2.46875 C 4.015625 -2.03125 4.457031 -1.8125 5.03125 -1.8125 Z M 5.03125 -1.8125 "/></g></g></g><g fill="#000000" fill-opacity="1"><g transform="translate(149.143995, 208.455355)"><g><path d="M 9.1875 -9.0625 L 9.1875 -7.8125 L 7.765625 -7.4375 C 8.023438 -7.039062 8.15625 -6.585938 8.15625 -6.078125 C 8.15625 -5.109375 7.816406 -4.351562 7.140625 -3.8125 C 6.460938 -3.269531 5.519531 -3 4.3125 -3 L 3.875 -3.015625 L 3.5 -3.0625 C 3.25 -2.863281 3.125 -2.644531 3.125 -2.40625 C 3.125 -2.050781 3.578125 -1.875 4.484375 -1.875 L 6.03125 -1.875 C 7.019531 -1.875 7.773438 -1.660156 8.296875 -1.234375 C 8.816406 -0.804688 9.078125 -0.175781 9.078125 0.65625 C 9.078125 1.707031 8.632812 2.523438 7.75 3.109375 C 6.875 3.691406 5.609375 3.984375 3.953125 3.984375 C 2.679688 3.984375 1.710938 3.765625 1.046875 3.328125 C 0.378906 2.890625 0.046875 2.269531 0.046875 1.46875 C 0.046875 0.925781 0.21875 0.46875 0.5625 0.09375 C 0.90625 -0.269531 1.40625 -0.53125 2.0625 -0.6875 C 1.800781 -0.789062 1.578125 -0.960938 1.390625 -1.203125 C 1.203125 -1.453125 1.109375 -1.71875 1.109375 -2 C 1.109375 -2.34375 1.207031 -2.628906 1.40625 -2.859375 C 1.613281 -3.085938 1.90625 -3.3125 2.28125 -3.53125 C 1.800781 -3.738281 1.421875 -4.066406 1.140625 -4.515625 C 0.867188 -4.972656 0.734375 -5.507812 0.734375 -6.125 C 0.734375 -7.113281 1.050781 -7.878906 1.6875 -8.421875 C 2.332031 -8.960938 3.253906 -9.234375 4.453125 -9.234375 C 4.703125 -9.234375 5 -9.207031 5.34375 -9.15625 C 5.695312 -9.113281 5.925781 -9.082031 6.03125 -9.0625 Z M 2.1875 1.28125 C 2.1875 1.625 2.347656 1.890625 2.671875 2.078125 C 3.003906 2.273438 3.46875 2.375 4.0625 2.375 C 4.945312 2.375 5.640625 2.25 6.140625 2 C 6.640625 1.757812 6.890625 1.429688 6.890625 1.015625 C 6.890625 0.671875 6.738281 0.429688 6.4375 0.296875 C 6.144531 0.171875 5.6875 0.109375 5.0625 0.109375 L 3.78125 0.109375 C 3.332031 0.109375 2.953125 0.210938 2.640625 0.421875 C 2.335938 0.640625 2.1875 0.925781 2.1875 1.28125 Z M 3.09375 -6.09375 C 3.09375 -5.601562 3.203125 -5.210938 3.421875 -4.921875 C 3.648438 -4.640625 3.992188 -4.5 4.453125 -4.5 C 4.921875 -4.5 5.257812 -4.640625 5.46875 -4.921875 C 5.6875 -5.210938 5.796875 -5.601562 5.796875 -6.09375 C 5.796875 -7.1875 5.347656 -7.734375 4.453125 -7.734375 C 3.546875 -7.734375 3.09375 -7.1875 3.09375 -6.09375 Z M 3.09375 -6.09375 "/></g></g></g><g fill="#000000" fill-opacity="1"><g transform="translate(158.521125, 208.455355)"><g><path d="M 5.046875 -7.484375 C 4.523438 -7.484375 4.113281 -7.316406 3.8125 -6.984375 C 3.519531 -6.648438 3.351562 -6.175781 3.3125 -5.5625 L 6.78125 -5.5625 C 6.769531 -6.175781 6.609375 -6.648438 6.296875 -6.984375 C 5.992188 -7.316406 5.578125 -7.484375 5.046875 -7.484375 Z M 5.40625 0.15625 C 3.945312 0.15625 2.804688 -0.242188 1.984375 -1.046875 C 1.160156 -1.847656 0.75 -2.988281 0.75 -4.46875 C 0.75 -5.988281 1.128906 -7.160156 1.890625 -7.984375 C 2.648438 -8.816406 3.695312 -9.234375 5.03125 -9.234375 C 6.3125 -9.234375 7.304688 -8.867188 8.015625 -8.140625 C 8.734375 -7.410156 9.09375 -6.40625 9.09375 -5.125 L 9.09375 -3.921875 L 3.25 -3.921875 C 3.28125 -3.210938 3.488281 -2.660156 3.875 -2.265625 C 4.257812 -1.867188 4.804688 -1.671875 5.515625 -1.671875 C 6.054688 -1.671875 6.570312 -1.726562 7.0625 -1.84375 C 7.550781 -1.957031 8.0625 -2.140625 8.59375 -2.390625 L 8.59375 -0.484375 C 8.15625 -0.265625 7.691406 -0.101562 7.203125 0 C 6.710938 0.101562 6.113281 0.15625 5.40625 0.15625 Z M 5.40625 0.15625 "/></g></g></g><g fill="#000000" fill-opacity="1"><g transform="translate(168.327803, 208.455355)"><g/></g></g><g fill="#000000" fill-opacity="1"><g transform="translate(172.6395, 208.455355)"><g><path d="M 1.5 0 L 1.5 -11.859375 L 4 -11.859375 L 4 0 Z M 1.5 0 "/></g></g></g><g fill="#000000" fill-opacity="1"><g transform="translate(178.134481, 208.455355)"><g><path d="M 9.671875 0 L 7.1875 0 L 7.1875 -5.296875 C 7.1875 -5.953125 7.070312 -6.441406 6.84375 -6.765625 C 6.613281 -7.097656 6.242188 -7.265625 5.734375 -7.265625 C 5.046875 -7.265625 4.546875 -7.03125 4.234375 -6.5625 C 3.921875 -6.101562 3.765625 -5.335938 3.765625 -4.265625 L 3.765625 0 L 1.296875 0 L 1.296875 -9.0625 L 3.1875 -9.0625 L 3.515625 -7.90625 L 3.65625 -7.90625 C 3.9375 -8.34375 4.316406 -8.671875 4.796875 -8.890625 C 5.273438 -9.117188 5.828125 -9.234375 6.453125 -9.234375 C 7.503906 -9.234375 8.300781 -8.945312 8.84375 -8.375 C 9.394531 -7.8125 9.671875 -6.988281 9.671875 -5.90625 Z M 9.671875 0 "/></g></g></g><g fill="#000000" fill-opacity="1"><g transform="translate(189.043398, 208.455355)"><g><path d="M 1.1875 -11.40625 C 1.1875 -12.21875 1.632812 -12.625 2.53125 -12.625 C 3.4375 -12.625 3.890625 -12.21875 3.890625 -11.40625 C 3.890625 -11.019531 3.773438 -10.71875 3.546875 -10.5 C 3.328125 -10.289062 2.988281 -10.1875 2.53125 -10.1875 C 1.632812 -10.1875 1.1875 -10.59375 1.1875 -11.40625 Z M 3.765625 0 L 1.296875 0 L 1.296875 -9.0625 L 3.765625 -9.0625 Z M 3.765625 0 "/></g></g></g><g fill="#000000" fill-opacity="1"><g transform="translate(194.108831, 208.455355)"><g><path d="M 5.125 -1.8125 C 5.550781 -1.8125 6.066406 -1.90625 6.671875 -2.09375 L 6.671875 -0.25 C 6.054688 0.0195312 5.300781 0.15625 4.40625 0.15625 C 3.414062 0.15625 2.691406 -0.09375 2.234375 -0.59375 C 1.785156 -1.09375 1.5625 -1.84375 1.5625 -2.84375 L 1.5625 -7.203125 L 0.375 -7.203125 L 0.375 -8.25 L 1.75 -9.078125 L 2.453125 -11 L 4.03125 -11 L 4.03125 -9.0625 L 6.578125 -9.0625 L 6.578125 -7.203125 L 4.03125 -7.203125 L 4.03125 -2.84375 C 4.03125 -2.488281 4.128906 -2.226562 4.328125 -2.0625 C 4.523438 -1.894531 4.789062 -1.8125 5.125 -1.8125 Z M 5.125 -1.8125 "/></g></g></g><g fill="#000000" fill-opacity="1"><g transform="translate(201.313903, 208.455355)"><g><path d="M 1.1875 -11.40625 C 1.1875 -12.21875 1.632812 -12.625 2.53125 -12.625 C 3.4375 -12.625 3.890625 -12.21875 3.890625 -11.40625 C 3.890625 -11.019531 3.773438 -10.71875 3.546875 -10.5 C 3.328125 -10.289062 2.988281 -10.1875 2.53125 -10.1875 C 1.632812 -10.1875 1.1875 -10.59375 1.1875 -11.40625 Z M 3.765625 0 L 1.296875 0 L 1.296875 -9.0625 L 3.765625 -9.0625 Z M 3.765625 0 "/></g></g></g><g fill="#000000" fill-opacity="1"><g transform="translate(206.379336, 208.455355)"><g><path d="M 7.0625 0 L 6.578125 -1.234375 L 6.515625 -1.234375 C 6.097656 -0.710938 5.664062 -0.347656 5.21875 -0.140625 C 4.78125 0.0546875 4.207031 0.15625 3.5 0.15625 C 2.632812 0.15625 1.953125 -0.0859375 1.453125 -0.578125 C 0.953125 -1.078125 0.703125 -1.785156 0.703125 -2.703125 C 0.703125 -3.671875 1.035156 -4.378906 1.703125 -4.828125 C 2.378906 -5.285156 3.394531 -5.539062 4.75 -5.59375 L 6.328125 -5.640625 L 6.328125 -6.046875 C 6.328125 -6.960938 5.859375 -7.421875 4.921875 -7.421875 C 4.191406 -7.421875 3.335938 -7.203125 2.359375 -6.765625 L 1.546875 -8.4375 C 2.585938 -8.976562 3.742188 -9.25 5.015625 -9.25 C 6.234375 -9.25 7.164062 -8.984375 7.8125 -8.453125 C 8.457031 -7.921875 8.78125 -7.117188 8.78125 -6.046875 L 8.78125 0 Z M 6.328125 -4.203125 L 5.375 -4.171875 C 4.65625 -4.148438 4.117188 -4.019531 3.765625 -3.78125 C 3.410156 -3.539062 3.234375 -3.175781 3.234375 -2.6875 C 3.234375 -1.988281 3.632812 -1.640625 4.4375 -1.640625 C 5.007812 -1.640625 5.46875 -1.804688 5.8125 -2.140625 C 6.15625 -2.472656 6.328125 -2.910156 6.328125 -3.453125 Z M 6.328125 -4.203125 "/></g></g></g><g fill="#000000" fill-opacity="1"><g transform="translate(216.404841, 208.455355)"><g><path d="M 5.125 -1.8125 C 5.550781 -1.8125 6.066406 -1.90625 6.671875 -2.09375 L 6.671875 -0.25 C 6.054688 0.0195312 5.300781 0.15625 4.40625 0.15625 C 3.414062 0.15625 2.691406 -0.09375 2.234375 -0.59375 C 1.785156 -1.09375 1.5625 -1.84375 1.5625 -2.84375 L 1.5625 -7.203125 L 0.375 -7.203125 L 0.375 -8.25 L 1.75 -9.078125 L 2.453125 -11 L 4.03125 -11 L 4.03125 -9.0625 L 6.578125 -9.0625 L 6.578125 -7.203125 L 4.03125 -7.203125 L 4.03125 -2.84375 C 4.03125 -2.488281 4.128906 -2.226562 4.328125 -2.0625 C 4.523438 -1.894531 4.789062 -1.8125 5.125 -1.8125 Z M 5.125 -1.8125 "/></g></g></g><g fill="#000000" fill-opacity="1"><g transform="translate(223.609913, 208.455355)"><g><path d="M 1.1875 -11.40625 C 1.1875 -12.21875 1.632812 -12.625 2.53125 -12.625 C 3.4375 -12.625 3.890625 -12.21875 3.890625 -11.40625 C 3.890625 -11.019531 3.773438 -10.71875 3.546875 -10.5 C 3.328125 -10.289062 2.988281 -10.1875 2.53125 -10.1875 C 1.632812 -10.1875 1.1875 -10.59375 1.1875 -11.40625 Z M 3.765625 0 L 1.296875 0 L 1.296875 -9.0625 L 3.765625 -9.0625 Z M 3.765625 0 "/></g></g></g><g fill="#000000" fill-opacity="1"><g transform="translate(228.675346, 208.455355)"><g><path d="M 3.453125 0 L 0 -9.0625 L 2.59375 -9.0625 L 4.34375 -3.90625 C 4.53125 -3.25 4.648438 -2.628906 4.703125 -2.046875 L 4.75 -2.046875 C 4.78125 -2.566406 4.90625 -3.1875 5.125 -3.90625 L 6.859375 -9.0625 L 9.453125 -9.0625 L 6 0 Z M 3.453125 0 "/></g></g></g><g fill="#000000" fill-opacity="1"><g transform="translate(238.117313, 208.455355)"><g><path d="M 5.046875 -7.484375 C 4.523438 -7.484375 4.113281 -7.316406 3.8125 -6.984375 C 3.519531 -6.648438 3.351562 -6.175781 3.3125 -5.5625 L 6.78125 -5.5625 C 6.769531 -6.175781 6.609375 -6.648438 6.296875 -6.984375 C 5.992188 -7.316406 5.578125 -7.484375 5.046875 -7.484375 Z M 5.40625 0.15625 C 3.945312 0.15625 2.804688 -0.242188 1.984375 -1.046875 C 1.160156 -1.847656 0.75 -2.988281 0.75 -4.46875 C 0.75 -5.988281 1.128906 -7.160156 1.890625 -7.984375 C 2.648438 -8.816406 3.695312 -9.234375 5.03125 -9.234375 C 6.3125 -9.234375 7.304688 -8.867188 8.015625 -8.140625 C 8.734375 -7.410156 9.09375 -6.40625 9.09375 -5.125 L 9.09375 -3.921875 L 3.25 -3.921875 C 3.28125 -3.210938 3.488281 -2.660156 3.875 -2.265625 C 4.257812 -1.867188 4.804688 -1.671875 5.515625 -1.671875 C 6.054688 -1.671875 6.570312 -1.726562 7.0625 -1.84375 C 7.550781 -1.957031 8.0625 -2.140625 8.59375 -2.390625 L 8.59375 -0.484375 C 8.15625 -0.265625 7.691406 -0.101562 7.203125 0 C 6.710938 0.101562 6.113281 0.15625 5.40625 0.15625 Z M 5.40625 0.15625 "/></g></g></g><g fill="#000000" fill-opacity="1"><g transform="translate(247.924005, 208.455355)"><g><path d="M 7.625 -2.6875 C 7.625 -1.757812 7.300781 -1.050781 6.65625 -0.5625 C 6.007812 -0.0820312 5.039062 0.15625 3.75 0.15625 C 3.09375 0.15625 2.53125 0.109375 2.0625 0.015625 C 1.601562 -0.0664062 1.171875 -0.191406 0.765625 -0.359375 L 0.765625 -2.40625 C 1.222656 -2.1875 1.738281 -2.003906 2.3125 -1.859375 C 2.882812 -1.710938 3.394531 -1.640625 3.84375 -1.640625 C 4.738281 -1.640625 5.1875 -1.898438 5.1875 -2.421875 C 5.1875 -2.617188 5.125 -2.773438 5 -2.890625 C 4.882812 -3.015625 4.679688 -3.15625 4.390625 -3.3125 C 4.097656 -3.46875 3.707031 -3.648438 3.21875 -3.859375 C 2.519531 -4.148438 2.003906 -4.414062 1.671875 -4.65625 C 1.347656 -4.90625 1.113281 -5.191406 0.96875 -5.515625 C 0.820312 -5.835938 0.75 -6.234375 0.75 -6.703125 C 0.75 -7.515625 1.0625 -8.140625 1.6875 -8.578125 C 2.3125 -9.015625 3.195312 -9.234375 4.34375 -9.234375 C 5.4375 -9.234375 6.5 -9 7.53125 -8.53125 L 6.78125 -6.734375 C 6.320312 -6.929688 5.894531 -7.09375 5.5 -7.21875 C 5.113281 -7.34375 4.710938 -7.40625 4.296875 -7.40625 C 3.566406 -7.40625 3.203125 -7.207031 3.203125 -6.8125 C 3.203125 -6.59375 3.316406 -6.398438 3.546875 -6.234375 C 3.785156 -6.078125 4.300781 -5.835938 5.09375 -5.515625 C 5.800781 -5.222656 6.320312 -4.953125 6.65625 -4.703125 C 6.988281 -4.460938 7.234375 -4.175781 7.390625 -3.84375 C 7.546875 -3.519531 7.625 -3.132812 7.625 -2.6875 Z M 7.625 -2.6875 "/></g></g></g><g fill="#000000" fill-opacity="1"><g transform="translate(256.174555, 208.455355)"><g/></g></g><g fill="#000000" fill-opacity="1"><g transform="translate(260.486252, 208.455355)"><g><path d="M 6.3125 -7.203125 L 4.171875 -7.203125 L 4.171875 0 L 1.6875 0 L 1.6875 -7.203125 L 0.328125 -7.203125 L 0.328125 -8.40625 L 1.6875 -9.0625 L 1.6875 -9.734375 C 1.6875 -10.765625 1.941406 -11.515625 2.453125 -11.984375 C 2.960938 -12.460938 3.78125 -12.703125 4.90625 -12.703125 C 5.757812 -12.703125 6.515625 -12.578125 7.171875 -12.328125 L 6.546875 -10.515625 C 6.046875 -10.671875 5.585938 -10.75 5.171875 -10.75 C 4.816406 -10.75 4.5625 -10.644531 4.40625 -10.4375 C 4.25 -10.226562 4.171875 -9.960938 4.171875 -9.640625 L 4.171875 -9.0625 L 6.3125 -9.0625 Z M 6.3125 -7.203125 "/></g></g></g><g fill="#000000" fill-opacity="1"><g transform="translate(266.913287, 208.455355)"><g><path d="M 3.265625 -4.546875 C 3.265625 -3.648438 3.410156 -2.972656 3.703125 -2.515625 C 4.003906 -2.054688 4.488281 -1.828125 5.15625 -1.828125 C 5.8125 -1.828125 6.28125 -2.054688 6.5625 -2.515625 C 6.851562 -2.972656 7 -3.648438 7 -4.546875 C 7 -5.441406 6.851562 -6.113281 6.5625 -6.5625 C 6.269531 -7.019531 5.796875 -7.25 5.140625 -7.25 C 4.472656 -7.25 3.992188 -7.023438 3.703125 -6.578125 C 3.410156 -6.128906 3.265625 -5.453125 3.265625 -4.546875 Z M 9.53125 -4.546875 C 9.53125 -3.066406 9.140625 -1.910156 8.359375 -1.078125 C 7.585938 -0.253906 6.507812 0.15625 5.125 0.15625 C 4.25 0.15625 3.476562 -0.03125 2.8125 -0.40625 C 2.144531 -0.789062 1.632812 -1.335938 1.28125 -2.046875 C 0.925781 -2.765625 0.75 -3.597656 0.75 -4.546875 C 0.75 -6.023438 1.132812 -7.175781 1.90625 -8 C 2.675781 -8.820312 3.765625 -9.234375 5.171875 -9.234375 C 6.035156 -9.234375 6.800781 -9.046875 7.46875 -8.671875 C 8.132812 -8.296875 8.644531 -7.753906 9 -7.046875 C 9.351562 -6.335938 9.53125 -5.503906 9.53125 -4.546875 Z M 9.53125 -4.546875 "/></g></g></g><g fill="#000000" fill-opacity="1"><g transform="translate(277.190037, 208.455355)"><g><path d="M 6.359375 -9.234375 C 6.691406 -9.234375 6.96875 -9.210938 7.1875 -9.171875 L 7 -6.84375 C 6.800781 -6.894531 6.5625 -6.921875 6.28125 -6.921875 C 5.488281 -6.921875 4.867188 -6.71875 4.421875 -6.3125 C 3.984375 -5.90625 3.765625 -5.335938 3.765625 -4.609375 L 3.765625 0 L 1.296875 0 L 1.296875 -9.0625 L 3.171875 -9.0625 L 3.53125 -7.546875 L 3.65625 -7.546875 C 3.9375 -8.054688 4.316406 -8.460938 4.796875 -8.765625 C 5.273438 -9.078125 5.796875 -9.234375 6.359375 -9.234375 Z M 6.359375 -9.234375 "/></g></g></g><g fill="#000000" fill-opacity="1"><g transform="translate(284.727402, 208.455355)"><g/></g></g><g fill="#000000" fill-opacity="1"><g transform="translate(289.039098, 208.455355)"><g><path d="M 1.5 0 L 1.5 -11.859375 L 4 -11.859375 L 4 -2.078125 L 8.8125 -2.078125 L 8.8125 0 Z M 1.5 0 "/></g></g></g><g fill="#000000" fill-opacity="1"><g transform="translate(298.416215, 208.455355)"><g><path d="M 5.046875 -7.484375 C 4.523438 -7.484375 4.113281 -7.316406 3.8125 -6.984375 C 3.519531 -6.648438 3.351562 -6.175781 3.3125 -5.5625 L 6.78125 -5.5625 C 6.769531 -6.175781 6.609375 -6.648438 6.296875 -6.984375 C 5.992188 -7.316406 5.578125 -7.484375 5.046875 -7.484375 Z M 5.40625 0.15625 C 3.945312 0.15625 2.804688 -0.242188 1.984375 -1.046875 C 1.160156 -1.847656 0.75 -2.988281 0.75 -4.46875 C 0.75 -5.988281 1.128906 -7.160156 1.890625 -7.984375 C 2.648438 -8.816406 3.695312 -9.234375 5.03125 -9.234375 C 6.3125 -9.234375 7.304688 -8.867188 8.015625 -8.140625 C 8.734375 -7.410156 9.09375 -6.40625 9.09375 -5.125 L 9.09375 -3.921875 L 3.25 -3.921875 C 3.28125 -3.210938 3.488281 -2.660156 3.875 -2.265625 C 4.257812 -1.867188 4.804688 -1.671875 5.515625 -1.671875 C 6.054688 -1.671875 6.570312 -1.726562 7.0625 -1.84375 C 7.550781 -1.957031 8.0625 -2.140625 8.59375 -2.390625 L 8.59375 -0.484375 C 8.15625 -0.265625 7.691406 -0.101562 7.203125 0 C 6.710938 0.101562 6.113281 0.15625 5.40625 0.15625 Z M 5.40625 0.15625 "/></g></g></g><g fill="#000000" fill-opacity="1"><g transform="translate(308.22292, 208.455355)"><g><path d="M 7.0625 0 L 6.578125 -1.234375 L 6.515625 -1.234375 C 6.097656 -0.710938 5.664062 -0.347656 5.21875 -0.140625 C 4.78125 0.0546875 4.207031 0.15625 3.5 0.15625 C 2.632812 0.15625 1.953125 -0.0859375 1.453125 -0.578125 C 0.953125 -1.078125 0.703125 -1.785156 0.703125 -2.703125 C 0.703125 -3.671875 1.035156 -4.378906 1.703125 -4.828125 C 2.378906 -5.285156 3.394531 -5.539062 4.75 -5.59375 L 6.328125 -5.640625 L 6.328125 -6.046875 C 6.328125 -6.960938 5.859375 -7.421875 4.921875 -7.421875 C 4.191406 -7.421875 3.335938 -7.203125 2.359375 -6.765625 L 1.546875 -8.4375 C 2.585938 -8.976562 3.742188 -9.25 5.015625 -9.25 C 6.234375 -9.25 7.164062 -8.984375 7.8125 -8.453125 C 8.457031 -7.921875 8.78125 -7.117188 8.78125 -6.046875 L 8.78125 0 Z M 6.328125 -4.203125 L 5.375 -4.171875 C 4.65625 -4.148438 4.117188 -4.019531 3.765625 -3.78125 C 3.410156 -3.539062 3.234375 -3.175781 3.234375 -2.6875 C 3.234375 -1.988281 3.632812 -1.640625 4.4375 -1.640625 C 5.007812 -1.640625 5.46875 -1.804688 5.8125 -2.140625 C 6.15625 -2.472656 6.328125 -2.910156 6.328125 -3.453125 Z M 6.328125 -4.203125 "/></g></g></g><g fill="#000000" fill-opacity="1"><g transform="translate(318.248411, 208.455355)"><g><path d="M 6.359375 -9.234375 C 6.691406 -9.234375 6.96875 -9.210938 7.1875 -9.171875 L 7 -6.84375 C 6.800781 -6.894531 6.5625 -6.921875 6.28125 -6.921875 C 5.488281 -6.921875 4.867188 -6.71875 4.421875 -6.3125 C 3.984375 -5.90625 3.765625 -5.335938 3.765625 -4.609375 L 3.765625 0 L 1.296875 0 L 1.296875 -9.0625 L 3.171875 -9.0625 L 3.53125 -7.546875 L 3.65625 -7.546875 C 3.9375 -8.054688 4.316406 -8.460938 4.796875 -8.765625 C 5.273438 -9.078125 5.796875 -9.234375 6.359375 -9.234375 Z M 6.359375 -9.234375 "/></g></g></g><g fill="#000000" fill-opacity="1"><g transform="translate(325.785776, 208.455355)"><g><path d="M 9.671875 0 L 7.1875 0 L 7.1875 -5.296875 C 7.1875 -5.953125 7.070312 -6.441406 6.84375 -6.765625 C 6.613281 -7.097656 6.242188 -7.265625 5.734375 -7.265625 C 5.046875 -7.265625 4.546875 -7.03125 4.234375 -6.5625 C 3.921875 -6.101562 3.765625 -5.335938 3.765625 -4.265625 L 3.765625 0 L 1.296875 0 L 1.296875 -9.0625 L 3.1875 -9.0625 L 3.515625 -7.90625 L 3.65625 -7.90625 C 3.9375 -8.34375 4.316406 -8.671875 4.796875 -8.890625 C 5.273438 -9.117188 5.828125 -9.234375 6.453125 -9.234375 C 7.503906 -9.234375 8.300781 -8.945312 8.84375 -8.375 C 9.394531 -7.8125 9.671875 -6.988281 9.671875 -5.90625 Z M 9.671875 0 "/></g></g></g><g fill="#000000" fill-opacity="1"><g transform="translate(336.694692, 208.455355)"><g><path d="M 1.1875 -11.40625 C 1.1875 -12.21875 1.632812 -12.625 2.53125 -12.625 C 3.4375 -12.625 3.890625 -12.21875 3.890625 -11.40625 C 3.890625 -11.019531 3.773438 -10.71875 3.546875 -10.5 C 3.328125 -10.289062 2.988281 -10.1875 2.53125 -10.1875 C 1.632812 -10.1875 1.1875 -10.59375 1.1875 -11.40625 Z M 3.765625 0 L 1.296875 0 L 1.296875 -9.0625 L 3.765625 -9.0625 Z M 3.765625 0 "/></g></g></g><g fill="#000000" fill-opacity="1"><g transform="translate(341.760112, 208.455355)"><g><path d="M 9.671875 0 L 7.1875 0 L 7.1875 -5.296875 C 7.1875 -5.953125 7.070312 -6.441406 6.84375 -6.765625 C 6.613281 -7.097656 6.242188 -7.265625 5.734375 -7.265625 C 5.046875 -7.265625 4.546875 -7.03125 4.234375 -6.5625 C 3.921875 -6.101562 3.765625 -5.335938 3.765625 -4.265625 L 3.765625 0 L 1.296875 0 L 1.296875 -9.0625 L 3.1875 -9.0625 L 3.515625 -7.90625 L 3.65625 -7.90625 C 3.9375 -8.34375 4.316406 -8.671875 4.796875 -8.890625 C 5.273438 -9.117188 5.828125 -9.234375 6.453125 -9.234375 C 7.503906 -9.234375 8.300781 -8.945312 8.84375 -8.375 C 9.394531 -7.8125 9.671875 -6.988281 9.671875 -5.90625 Z M 9.671875 0 "/></g></g></g><g fill="#000000" fill-opacity="1"><g transform="translate(352.669056, 208.455355)"><g><path d="M 9.1875 -9.0625 L 9.1875 -7.8125 L 7.765625 -7.4375 C 8.023438 -7.039062 8.15625 -6.585938 8.15625 -6.078125 C 8.15625 -5.109375 7.816406 -4.351562 7.140625 -3.8125 C 6.460938 -3.269531 5.519531 -3 4.3125 -3 L 3.875 -3.015625 L 3.5 -3.0625 C 3.25 -2.863281 3.125 -2.644531 3.125 -2.40625 C 3.125 -2.050781 3.578125 -1.875 4.484375 -1.875 L 6.03125 -1.875 C 7.019531 -1.875 7.773438 -1.660156 8.296875 -1.234375 C 8.816406 -0.804688 9.078125 -0.175781 9.078125 0.65625 C 9.078125 1.707031 8.632812 2.523438 7.75 3.109375 C 6.875 3.691406 5.609375 3.984375 3.953125 3.984375 C 2.679688 3.984375 1.710938 3.765625 1.046875 3.328125 C 0.378906 2.890625 0.046875 2.269531 0.046875 1.46875 C 0.046875 0.925781 0.21875 0.46875 0.5625 0.09375 C 0.90625 -0.269531 1.40625 -0.53125 2.0625 -0.6875 C 1.800781 -0.789062 1.578125 -0.960938 1.390625 -1.203125 C 1.203125 -1.453125 1.109375 -1.71875 1.109375 -2 C 1.109375 -2.34375 1.207031 -2.628906 1.40625 -2.859375 C 1.613281 -3.085938 1.90625 -3.3125 2.28125 -3.53125 C 1.800781 -3.738281 1.421875 -4.066406 1.140625 -4.515625 C 0.867188 -4.972656 0.734375 -5.507812 0.734375 -6.125 C 0.734375 -7.113281 1.050781 -7.878906 1.6875 -8.421875 C 2.332031 -8.960938 3.253906 -9.234375 4.453125 -9.234375 C 4.703125 -9.234375 5 -9.207031 5.34375 -9.15625 C 5.695312 -9.113281 5.925781 -9.082031 6.03125 -9.0625 Z M 2.1875 1.28125 C 2.1875 1.625 2.347656 1.890625 2.671875 2.078125 C 3.003906 2.273438 3.46875 2.375 4.0625 2.375 C 4.945312 2.375 5.640625 2.25 6.140625 2 C 6.640625 1.757812 6.890625 1.429688 6.890625 1.015625 C 6.890625 0.671875 6.738281 0.429688 6.4375 0.296875 C 6.144531 0.171875 5.6875 0.109375 5.0625 0.109375 L 3.78125 0.109375 C 3.332031 0.109375 2.953125 0.210938 2.640625 0.421875 C 2.335938 0.640625 2.1875 0.925781 2.1875 1.28125 Z M 3.09375 -6.09375 C 3.09375 -5.601562 3.203125 -5.210938 3.421875 -4.921875 C 3.648438 -4.640625 3.992188 -4.5 4.453125 -4.5 C 4.921875 -4.5 5.257812 -4.640625 5.46875 -4.921875 C 5.6875 -5.210938 5.796875 -5.601562 5.796875 -6.09375 C 5.796875 -7.1875 5.347656 -7.734375 4.453125 -7.734375 C 3.546875 -7.734375 3.09375 -7.1875 3.09375 -6.09375 Z M 3.09375 -6.09375 "/></g></g></g><g fill="#000000" fill-opacity="1"><g transform="translate(362.046172, 208.455355)"><g/></g></g><g fill="#000000" fill-opacity="1"><g transform="translate(366.357868, 208.455355)"><g><path d="M 6.34375 -9.234375 C 7.414062 -9.234375 8.253906 -8.816406 8.859375 -7.984375 C 9.460938 -7.148438 9.765625 -6.003906 9.765625 -4.546875 C 9.765625 -3.046875 9.453125 -1.882812 8.828125 -1.0625 C 8.203125 -0.25 7.351562 0.15625 6.28125 0.15625 C 5.207031 0.15625 4.367188 -0.226562 3.765625 -1 L 3.59375 -1 L 3.1875 0 L 1.296875 0 L 1.296875 -12.625 L 3.765625 -12.625 L 3.765625 -9.6875 C 3.765625 -9.3125 3.734375 -8.710938 3.671875 -7.890625 L 3.765625 -7.890625 C 4.347656 -8.785156 5.207031 -9.234375 6.34375 -9.234375 Z M 5.546875 -7.265625 C 4.929688 -7.265625 4.484375 -7.070312 4.203125 -6.6875 C 3.921875 -6.3125 3.773438 -5.691406 3.765625 -4.828125 L 3.765625 -4.5625 C 3.765625 -3.59375 3.910156 -2.894531 4.203125 -2.46875 C 4.492188 -2.050781 4.953125 -1.84375 5.578125 -1.84375 C 6.085938 -1.84375 6.492188 -2.078125 6.796875 -2.546875 C 7.097656 -3.015625 7.25 -3.691406 7.25 -4.578125 C 7.25 -5.472656 7.09375 -6.144531 6.78125 -6.59375 C 6.476562 -7.039062 6.066406 -7.265625 5.546875 -7.265625 Z M 5.546875 -7.265625 "/></g></g></g><g fill="#000000" fill-opacity="1"><g transform="translate(376.86155, 208.455355)"><g><path d="M 0 -9.0625 L 2.703125 -9.0625 L 4.421875 -3.96875 C 4.566406 -3.519531 4.664062 -2.992188 4.71875 -2.390625 L 4.765625 -2.390625 C 4.828125 -2.953125 4.945312 -3.476562 5.125 -3.96875 L 6.796875 -9.0625 L 9.453125 -9.0625 L 5.609375 1.15625 C 5.253906 2.101562 4.75 2.8125 4.09375 3.28125 C 3.445312 3.75 2.691406 3.984375 1.828125 3.984375 C 1.398438 3.984375 0.976562 3.941406 0.5625 3.859375 L 0.5625 1.890625 C 0.863281 1.960938 1.191406 2 1.546875 2 C 1.984375 2 2.363281 1.863281 2.6875 1.59375 C 3.007812 1.320312 3.265625 0.914062 3.453125 0.375 L 3.59375 -0.0625 Z M 0 -9.0625 "/></g></g></g><g fill="#000000" fill-opacity="1"><g transform="translate(386.303504, 208.455355)"><g/></g></g><g fill="#000000" fill-opacity="1"><g transform="translate(390.6152, 208.455355)"><g><path d="M 1.5 0 L 1.5 -11.859375 L 4 -11.859375 L 4 0 Z M 1.5 0 "/></g></g></g><g fill="#000000" fill-opacity="1"><g transform="translate(396.110209, 208.455355)"><g><path d="M 9.671875 0 L 7.1875 0 L 7.1875 -5.296875 C 7.1875 -5.953125 7.070312 -6.441406 6.84375 -6.765625 C 6.613281 -7.097656 6.242188 -7.265625 5.734375 -7.265625 C 5.046875 -7.265625 4.546875 -7.03125 4.234375 -6.5625 C 3.921875 -6.101562 3.765625 -5.335938 3.765625 -4.265625 L 3.765625 0 L 1.296875 0 L 1.296875 -9.0625 L 3.1875 -9.0625 L 3.515625 -7.90625 L 3.65625 -7.90625 C 3.9375 -8.34375 4.316406 -8.671875 4.796875 -8.890625 C 5.273438 -9.117188 5.828125 -9.234375 6.453125 -9.234375 C 7.503906 -9.234375 8.300781 -8.945312 8.84375 -8.375 C 9.394531 -7.8125 9.671875 -6.988281 9.671875 -5.90625 Z M 9.671875 0 "/></g></g></g><g fill="#000000" fill-opacity="1"><g transform="translate(407.019099, 208.455355)"><g><path d="M 9.671875 0 L 7.1875 0 L 7.1875 -5.296875 C 7.1875 -5.953125 7.070312 -6.441406 6.84375 -6.765625 C 6.613281 -7.097656 6.242188 -7.265625 5.734375 -7.265625 C 5.046875 -7.265625 4.546875 -7.03125 4.234375 -6.5625 C 3.921875 -6.101562 3.765625 -5.335938 3.765625 -4.265625 L 3.765625 0 L 1.296875 0 L 1.296875 -9.0625 L 3.1875 -9.0625 L 3.515625 -7.90625 L 3.65625 -7.90625 C 3.9375 -8.34375 4.316406 -8.671875 4.796875 -8.890625 C 5.273438 -9.117188 5.828125 -9.234375 6.453125 -9.234375 C 7.503906 -9.234375 8.300781 -8.945312 8.84375 -8.375 C 9.394531 -7.8125 9.671875 -6.988281 9.671875 -5.90625 Z M 9.671875 0 "/></g></g></g><g fill="#000000" fill-opacity="1"><g transform="translate(417.928042, 208.455355)"><g><path d="M 3.265625 -4.546875 C 3.265625 -3.648438 3.410156 -2.972656 3.703125 -2.515625 C 4.003906 -2.054688 4.488281 -1.828125 5.15625 -1.828125 C 5.8125 -1.828125 6.28125 -2.054688 6.5625 -2.515625 C 6.851562 -2.972656 7 -3.648438 7 -4.546875 C 7 -5.441406 6.851562 -6.113281 6.5625 -6.5625 C 6.269531 -7.019531 5.796875 -7.25 5.140625 -7.25 C 4.472656 -7.25 3.992188 -7.023438 3.703125 -6.578125 C 3.410156 -6.128906 3.265625 -5.453125 3.265625 -4.546875 Z M 9.53125 -4.546875 C 9.53125 -3.066406 9.140625 -1.910156 8.359375 -1.078125 C 7.585938 -0.253906 6.507812 0.15625 5.125 0.15625 C 4.25 0.15625 3.476562 -0.03125 2.8125 -0.40625 C 2.144531 -0.789062 1.632812 -1.335938 1.28125 -2.046875 C 0.925781 -2.765625 0.75 -3.597656 0.75 -4.546875 C 0.75 -6.023438 1.132812 -7.175781 1.90625 -8 C 2.675781 -8.820312 3.765625 -9.234375 5.171875 -9.234375 C 6.035156 -9.234375 6.800781 -9.046875 7.46875 -8.671875 C 8.132812 -8.296875 8.644531 -7.753906 9 -7.046875 C 9.351562 -6.335938 9.53125 -5.503906 9.53125 -4.546875 Z M 9.53125 -4.546875 "/></g></g></g><g fill="#000000" fill-opacity="1"><g transform="translate(428.204793, 208.455355)"><g><path d="M 3.453125 0 L 0 -9.0625 L 2.59375 -9.0625 L 4.34375 -3.90625 C 4.53125 -3.25 4.648438 -2.628906 4.703125 -2.046875 L 4.75 -2.046875 C 4.78125 -2.566406 4.90625 -3.1875 5.125 -3.90625 L 6.859375 -9.0625 L 9.453125 -9.0625 L 6 0 Z M 3.453125 0 "/></g></g></g><g fill="#000000" fill-opacity="1"><g transform="translate(437.646746, 208.455355)"><g><path d="M 7.0625 0 L 6.578125 -1.234375 L 6.515625 -1.234375 C 6.097656 -0.710938 5.664062 -0.347656 5.21875 -0.140625 C 4.78125 0.0546875 4.207031 0.15625 3.5 0.15625 C 2.632812 0.15625 1.953125 -0.0859375 1.453125 -0.578125 C 0.953125 -1.078125 0.703125 -1.785156 0.703125 -2.703125 C 0.703125 -3.671875 1.035156 -4.378906 1.703125 -4.828125 C 2.378906 -5.285156 3.394531 -5.539062 4.75 -5.59375 L 6.328125 -5.640625 L 6.328125 -6.046875 C 6.328125 -6.960938 5.859375 -7.421875 4.921875 -7.421875 C 4.191406 -7.421875 3.335938 -7.203125 2.359375 -6.765625 L 1.546875 -8.4375 C 2.585938 -8.976562 3.742188 -9.25 5.015625 -9.25 C 6.234375 -9.25 7.164062 -8.984375 7.8125 -8.453125 C 8.457031 -7.921875 8.78125 -7.117188 8.78125 -6.046875 L 8.78125 0 Z M 6.328125 -4.203125 L 5.375 -4.171875 C 4.65625 -4.148438 4.117188 -4.019531 3.765625 -3.78125 C 3.410156 -3.539062 3.234375 -3.175781 3.234375 -2.6875 C 3.234375 -1.988281 3.632812 -1.640625 4.4375 -1.640625 C 5.007812 -1.640625 5.46875 -1.804688 5.8125 -2.140625 C 6.15625 -2.472656 6.328125 -2.910156 6.328125 -3.453125 Z M 6.328125 -4.203125 "/></g></g></g><g fill="#000000" fill-opacity="1"><g transform="translate(447.672238, 208.455355)"><g><path d="M 5.125 -1.8125 C 5.550781 -1.8125 6.066406 -1.90625 6.671875 -2.09375 L 6.671875 -0.25 C 6.054688 0.0195312 5.300781 0.15625 4.40625 0.15625 C 3.414062 0.15625 2.691406 -0.09375 2.234375 -0.59375 C 1.785156 -1.09375 1.5625 -1.84375 1.5625 -2.84375 L 1.5625 -7.203125 L 0.375 -7.203125 L 0.375 -8.25 L 1.75 -9.078125 L 2.453125 -11 L 4.03125 -11 L 4.03125 -9.0625 L 6.578125 -9.0625 L 6.578125 -7.203125 L 4.03125 -7.203125 L 4.03125 -2.84375 C 4.03125 -2.488281 4.128906 -2.226562 4.328125 -2.0625 C 4.523438 -1.894531 4.789062 -1.8125 5.125 -1.8125 Z M 5.125 -1.8125 "/></g></g></g><g fill="#000000" fill-opacity="1"><g transform="translate(454.877323, 208.455355)"><g><path d="M 1.1875 -11.40625 C 1.1875 -12.21875 1.632812 -12.625 2.53125 -12.625 C 3.4375 -12.625 3.890625 -12.21875 3.890625 -11.40625 C 3.890625 -11.019531 3.773438 -10.71875 3.546875 -10.5 C 3.328125 -10.289062 2.988281 -10.1875 2.53125 -10.1875 C 1.632812 -10.1875 1.1875 -10.59375 1.1875 -11.40625 Z M 3.765625 0 L 1.296875 0 L 1.296875 -9.0625 L 3.765625 -9.0625 Z M 3.765625 0 "/></g></g></g><g fill="#000000" fill-opacity="1"><g transform="translate(459.94277, 208.455355)"><g><path d="M 3.265625 -4.546875 C 3.265625 -3.648438 3.410156 -2.972656 3.703125 -2.515625 C 4.003906 -2.054688 4.488281 -1.828125 5.15625 -1.828125 C 5.8125 -1.828125 6.28125 -2.054688 6.5625 -2.515625 C 6.851562 -2.972656 7 -3.648438 7 -4.546875 C 7 -5.441406 6.851562 -6.113281 6.5625 -6.5625 C 6.269531 -7.019531 5.796875 -7.25 5.140625 -7.25 C 4.472656 -7.25 3.992188 -7.023438 3.703125 -6.578125 C 3.410156 -6.128906 3.265625 -5.453125 3.265625 -4.546875 Z M 9.53125 -4.546875 C 9.53125 -3.066406 9.140625 -1.910156 8.359375 -1.078125 C 7.585938 -0.253906 6.507812 0.15625 5.125 0.15625 C 4.25 0.15625 3.476562 -0.03125 2.8125 -0.40625 C 2.144531 -0.789062 1.632812 -1.335938 1.28125 -2.046875 C 0.925781 -2.765625 0.75 -3.597656 0.75 -4.546875 C 0.75 -6.023438 1.132812 -7.175781 1.90625 -8 C 2.675781 -8.820312 3.765625 -9.234375 5.171875 -9.234375 C 6.035156 -9.234375 6.800781 -9.046875 7.46875 -8.671875 C 8.132812 -8.296875 8.644531 -7.753906 9 -7.046875 C 9.351562 -6.335938 9.53125 -5.503906 9.53125 -4.546875 Z M 9.53125 -4.546875 "/></g></g></g><g fill="#000000" fill-opacity="1"><g transform="translate(470.219521, 208.455355)"><g><path d="M 9.671875 0 L 7.1875 0 L 7.1875 -5.296875 C 7.1875 -5.953125 7.070312 -6.441406 6.84375 -6.765625 C 6.613281 -7.097656 6.242188 -7.265625 5.734375 -7.265625 C 5.046875 -7.265625 4.546875 -7.03125 4.234375 -6.5625 C 3.921875 -6.101562 3.765625 -5.335938 3.765625 -4.265625 L 3.765625 0 L 1.296875 0 L 1.296875 -9.0625 L 3.1875 -9.0625 L 3.515625 -7.90625 L 3.65625 -7.90625 C 3.9375 -8.34375 4.316406 -8.671875 4.796875 -8.890625 C 5.273438 -9.117188 5.828125 -9.234375 6.453125 -9.234375 C 7.503906 -9.234375 8.300781 -8.945312 8.84375 -8.375 C 9.394531 -7.8125 9.671875 -6.988281 9.671875 -5.90625 Z M 9.671875 0 "/></g></g></g><g fill="#000000" fill-opacity="1"><g transform="translate(63.216694, 238.789096)"><g><path d="M 10.1875 0 L 8.578125 0 L 4.25 -5.75 L 3.015625 -4.640625 L 3.015625 0 L 1.625 0 L 1.625 -11.859375 L 3.015625 -11.859375 L 3.015625 -5.984375 L 8.390625 -11.859375 L 10.015625 -11.859375 L 5.25 -6.703125 Z M 10.1875 0 "/></g></g></g><g fill="#000000" fill-opacity="1"><g transform="translate(74.234664, 238.789096)"><g><path d="M 2.78125 0 L 1.421875 0 L 1.421875 -8.890625 L 2.78125 -8.890625 Z M 1.3125 -11.296875 C 1.3125 -11.609375 1.382812 -11.832031 1.53125 -11.96875 C 1.6875 -12.113281 1.878906 -12.1875 2.109375 -12.1875 C 2.328125 -12.1875 2.515625 -12.113281 2.671875 -11.96875 C 2.828125 -11.820312 2.90625 -11.597656 2.90625 -11.296875 C 2.90625 -10.992188 2.828125 -10.765625 2.671875 -10.609375 C 2.515625 -10.460938 2.328125 -10.390625 2.109375 -10.390625 C 1.878906 -10.390625 1.6875 -10.460938 1.53125 -10.609375 C 1.382812 -10.765625 1.3125 -10.992188 1.3125 -11.296875 Z M 1.3125 -11.296875 "/></g></g></g><g fill="#000000" fill-opacity="1"><g transform="translate(79.263267, 238.789096)"><g><path d="M 4.296875 -0.953125 C 4.535156 -0.953125 4.765625 -0.96875 4.984375 -1 C 5.203125 -1.03125 5.378906 -1.066406 5.515625 -1.109375 L 5.515625 -0.078125 C 5.367188 -0.00390625 5.148438 0.0507812 4.859375 0.09375 C 4.578125 0.132812 4.328125 0.15625 4.109375 0.15625 C 2.390625 0.15625 1.53125 -0.742188 1.53125 -2.546875 L 1.53125 -7.84375 L 0.25 -7.84375 L 0.25 -8.484375 L 1.53125 -9.046875 L 2.09375 -10.953125 L 2.875 -10.953125 L 2.875 -8.890625 L 5.453125 -8.890625 L 5.453125 -7.84375 L 2.875 -7.84375 L 2.875 -2.609375 C 2.875 -2.078125 3 -1.664062 3.25 -1.375 C 3.507812 -1.09375 3.859375 -0.953125 4.296875 -0.953125 Z M 4.296875 -0.953125 "/></g></g></g><g fill="#000000" fill-opacity="1"><g transform="translate(85.953331, 238.789096)"><g/></g></g><g fill="#000000" fill-opacity="1"><g transform="translate(91.095399, 238.789096)"><g><path d="M 5.4375 -7.84375 L 3.171875 -7.84375 L 3.171875 0 L 1.828125 0 L 1.828125 -7.84375 L 0.234375 -7.84375 L 0.234375 -8.453125 L 1.828125 -8.9375 L 1.828125 -9.4375 C 1.828125 -11.613281 2.78125 -12.703125 4.6875 -12.703125 C 5.15625 -12.703125 5.707031 -12.609375 6.34375 -12.421875 L 6 -11.34375 C 5.476562 -11.507812 5.03125 -11.59375 4.65625 -11.59375 C 4.15625 -11.59375 3.78125 -11.421875 3.53125 -11.078125 C 3.289062 -10.742188 3.171875 -10.207031 3.171875 -9.46875 L 3.171875 -8.890625 L 5.4375 -8.890625 Z M 5.4375 -7.84375 "/></g></g></g><g fill="#000000" fill-opacity="1"><g transform="translate(97.550427, 238.789096)"><g><path d="M 9.09375 -4.453125 C 9.09375 -3.003906 8.726562 -1.875 8 -1.0625 C 7.269531 -0.25 6.265625 0.15625 4.984375 0.15625 C 4.179688 0.15625 3.472656 -0.0234375 2.859375 -0.390625 C 2.242188 -0.765625 1.769531 -1.300781 1.4375 -2 C 1.101562 -2.695312 0.9375 -3.515625 0.9375 -4.453125 C 0.9375 -5.898438 1.296875 -7.023438 2.015625 -7.828125 C 2.742188 -8.640625 3.75 -9.046875 5.03125 -9.046875 C 6.28125 -9.046875 7.269531 -8.628906 8 -7.796875 C 8.726562 -6.972656 9.09375 -5.859375 9.09375 -4.453125 Z M 2.328125 -4.453125 C 2.328125 -3.316406 2.550781 -2.453125 3 -1.859375 C 3.457031 -1.265625 4.128906 -0.96875 5.015625 -0.96875 C 5.890625 -0.96875 6.554688 -1.257812 7.015625 -1.84375 C 7.472656 -2.4375 7.703125 -3.304688 7.703125 -4.453125 C 7.703125 -5.578125 7.472656 -6.429688 7.015625 -7.015625 C 6.554688 -7.609375 5.882812 -7.90625 5 -7.90625 C 4.113281 -7.90625 3.445312 -7.613281 3 -7.03125 C 2.550781 -6.457031 2.328125 -5.597656 2.328125 -4.453125 Z M 2.328125 -4.453125 "/></g></g></g><g fill="#000000" fill-opacity="1"><g transform="translate(108.406303, 238.789096)"><g><path d="M 5.484375 -9.046875 C 5.878906 -9.046875 6.234375 -9.015625 6.546875 -8.953125 L 6.359375 -7.703125 C 5.992188 -7.785156 5.671875 -7.828125 5.390625 -7.828125 C 4.671875 -7.828125 4.054688 -7.535156 3.546875 -6.953125 C 3.035156 -6.367188 2.78125 -5.640625 2.78125 -4.765625 L 2.78125 0 L 1.421875 0 L 1.421875 -8.890625 L 2.53125 -8.890625 L 2.6875 -7.25 L 2.75 -7.25 C 3.082031 -7.820312 3.476562 -8.265625 3.9375 -8.578125 C 4.40625 -8.890625 4.921875 -9.046875 5.484375 -9.046875 Z M 5.484375 -9.046875 "/></g></g></g><g fill="#000000" fill-opacity="1"><g transform="translate(116.012197, 238.789096)"><g/></g></g><g fill="#000000" fill-opacity="1"><g transform="translate(121.154265, 238.789096)"><g><path d="M 8.234375 0 L 1.625 0 L 1.625 -11.859375 L 8.234375 -11.859375 L 8.234375 -10.625 L 3.015625 -10.625 L 3.015625 -6.8125 L 7.921875 -6.8125 L 7.921875 -5.59375 L 3.015625 -5.59375 L 3.015625 -1.234375 L 8.234375 -1.234375 Z M 8.234375 0 "/></g></g></g><g fill="#000000" fill-opacity="1"><g transform="translate(131.215882, 238.789096)"><g><path d="M 12.75 0 L 12.75 -5.78125 C 12.75 -6.488281 12.597656 -7.019531 12.296875 -7.375 C 11.992188 -7.726562 11.523438 -7.90625 10.890625 -7.90625 C 10.054688 -7.90625 9.4375 -7.664062 9.03125 -7.1875 C 8.632812 -6.707031 8.4375 -5.96875 8.4375 -4.96875 L 8.4375 0 L 7.09375 0 L 7.09375 -5.78125 C 7.09375 -6.488281 6.941406 -7.019531 6.640625 -7.375 C 6.335938 -7.726562 5.863281 -7.90625 5.21875 -7.90625 C 4.375 -7.90625 3.753906 -7.648438 3.359375 -7.140625 C 2.972656 -6.640625 2.78125 -5.8125 2.78125 -4.65625 L 2.78125 0 L 1.421875 0 L 1.421875 -8.890625 L 2.515625 -8.890625 L 2.734375 -7.671875 L 2.8125 -7.671875 C 3.0625 -8.109375 3.414062 -8.445312 3.875 -8.6875 C 4.34375 -8.925781 4.863281 -9.046875 5.4375 -9.046875 C 6.820312 -9.046875 7.726562 -8.546875 8.15625 -7.546875 L 8.21875 -7.546875 C 8.488281 -8.003906 8.875 -8.367188 9.375 -8.640625 C 9.875 -8.910156 10.445312 -9.046875 11.09375 -9.046875 C 12.101562 -9.046875 12.859375 -8.785156 13.359375 -8.265625 C 13.859375 -7.753906 14.109375 -6.929688 14.109375 -5.796875 L 14.109375 0 Z M 12.75 0 "/></g></g></g><g fill="#000000" fill-opacity="1"><g transform="translate(147.485693, 238.789096)"><g><path d="M 5.5625 0.15625 C 4.988281 0.15625 4.460938 0.0507812 3.984375 -0.15625 C 3.503906 -0.375 3.101562 -0.703125 2.78125 -1.140625 L 2.671875 -1.140625 C 2.742188 -0.617188 2.78125 -0.128906 2.78125 0.328125 L 2.78125 3.984375 L 1.421875 3.984375 L 1.421875 -8.890625 L 2.515625 -8.890625 L 2.703125 -7.671875 L 2.78125 -7.671875 C 3.125 -8.160156 3.523438 -8.507812 3.984375 -8.71875 C 4.441406 -8.9375 4.96875 -9.046875 5.5625 -9.046875 C 6.738281 -9.046875 7.644531 -8.644531 8.28125 -7.84375 C 8.925781 -7.039062 9.25 -5.910156 9.25 -4.453125 C 9.25 -2.992188 8.921875 -1.859375 8.265625 -1.046875 C 7.617188 -0.242188 6.71875 0.15625 5.5625 0.15625 Z M 5.375 -7.90625 C 4.457031 -7.90625 3.796875 -7.65625 3.390625 -7.15625 C 2.992188 -6.65625 2.789062 -5.851562 2.78125 -4.75 L 2.78125 -4.453125 C 2.78125 -3.203125 2.984375 -2.304688 3.390625 -1.765625 C 3.804688 -1.234375 4.476562 -0.96875 5.40625 -0.96875 C 6.164062 -0.96875 6.765625 -1.273438 7.203125 -1.890625 C 7.640625 -2.515625 7.859375 -3.375 7.859375 -4.46875 C 7.859375 -5.570312 7.640625 -6.421875 7.203125 -7.015625 C 6.765625 -7.609375 6.15625 -7.90625 5.375 -7.90625 Z M 5.375 -7.90625 "/></g></g></g><g fill="#000000" fill-opacity="1"><g transform="translate(158.487454, 238.789096)"><g><path d="M 9.09375 -4.453125 C 9.09375 -3.003906 8.726562 -1.875 8 -1.0625 C 7.269531 -0.25 6.265625 0.15625 4.984375 0.15625 C 4.179688 0.15625 3.472656 -0.0234375 2.859375 -0.390625 C 2.242188 -0.765625 1.769531 -1.300781 1.4375 -2 C 1.101562 -2.695312 0.9375 -3.515625 0.9375 -4.453125 C 0.9375 -5.898438 1.296875 -7.023438 2.015625 -7.828125 C 2.742188 -8.640625 3.75 -9.046875 5.03125 -9.046875 C 6.28125 -9.046875 7.269531 -8.628906 8 -7.796875 C 8.726562 -6.972656 9.09375 -5.859375 9.09375 -4.453125 Z M 2.328125 -4.453125 C 2.328125 -3.316406 2.550781 -2.453125 3 -1.859375 C 3.457031 -1.265625 4.128906 -0.96875 5.015625 -0.96875 C 5.890625 -0.96875 6.554688 -1.257812 7.015625 -1.84375 C 7.472656 -2.4375 7.703125 -3.304688 7.703125 -4.453125 C 7.703125 -5.578125 7.472656 -6.429688 7.015625 -7.015625 C 6.554688 -7.609375 5.882812 -7.90625 5 -7.90625 C 4.113281 -7.90625 3.445312 -7.613281 3 -7.03125 C 2.550781 -6.457031 2.328125 -5.597656 2.328125 -4.453125 Z M 2.328125 -4.453125 "/></g></g></g><g fill="#000000" fill-opacity="1"><g transform="translate(169.34333, 238.789096)"><g><path d="M 8.6875 0 L 7.0625 -5.21875 C 6.957031 -5.53125 6.765625 -6.253906 6.484375 -7.390625 L 6.421875 -7.390625 C 6.203125 -6.441406 6.007812 -5.710938 5.84375 -5.203125 L 4.171875 0 L 2.609375 0 L 0.1875 -8.890625 L 1.59375 -8.890625 C 2.164062 -6.660156 2.601562 -4.957031 2.90625 -3.78125 C 3.207031 -2.613281 3.378906 -1.828125 3.421875 -1.421875 L 3.484375 -1.421875 C 3.546875 -1.734375 3.640625 -2.132812 3.765625 -2.625 C 3.898438 -3.113281 4.019531 -3.5 4.125 -3.78125 L 5.75 -8.890625 L 7.203125 -8.890625 L 8.796875 -3.78125 C 9.097656 -2.851562 9.304688 -2.070312 9.421875 -1.4375 L 9.484375 -1.4375 C 9.503906 -1.632812 9.5625 -1.9375 9.65625 -2.34375 C 9.75 -2.75 10.3125 -4.929688 11.34375 -8.890625 L 12.734375 -8.890625 L 10.28125 0 Z M 8.6875 0 "/></g></g></g><g fill="#000000" fill-opacity="1"><g transform="translate(183.084477, 238.789096)"><g><path d="M 5.1875 0.15625 C 3.875 0.15625 2.835938 -0.238281 2.078125 -1.03125 C 1.316406 -1.832031 0.9375 -2.945312 0.9375 -4.375 C 0.9375 -5.800781 1.285156 -6.9375 1.984375 -7.78125 C 2.691406 -8.625 3.640625 -9.046875 4.828125 -9.046875 C 5.941406 -9.046875 6.820312 -8.679688 7.46875 -7.953125 C 8.125 -7.222656 8.453125 -6.253906 8.453125 -5.046875 L 8.453125 -4.203125 L 2.328125 -4.203125 C 2.359375 -3.160156 2.625 -2.367188 3.125 -1.828125 C 3.625 -1.285156 4.328125 -1.015625 5.234375 -1.015625 C 6.191406 -1.015625 7.132812 -1.210938 8.0625 -1.609375 L 8.0625 -0.40625 C 7.59375 -0.207031 7.144531 -0.0664062 6.71875 0.015625 C 6.289062 0.109375 5.78125 0.15625 5.1875 0.15625 Z M 4.8125 -7.921875 C 4.101562 -7.921875 3.535156 -7.6875 3.109375 -7.21875 C 2.679688 -6.757812 2.429688 -6.117188 2.359375 -5.296875 L 7 -5.296875 C 7 -6.140625 6.8125 -6.785156 6.4375 -7.234375 C 6.0625 -7.691406 5.519531 -7.921875 4.8125 -7.921875 Z M 4.8125 -7.921875 "/></g></g></g><g fill="#000000" fill-opacity="1"><g transform="translate(193.22714, 238.789096)"><g><path d="M 5.484375 -9.046875 C 5.878906 -9.046875 6.234375 -9.015625 6.546875 -8.953125 L 6.359375 -7.703125 C 5.992188 -7.785156 5.671875 -7.828125 5.390625 -7.828125 C 4.671875 -7.828125 4.054688 -7.535156 3.546875 -6.953125 C 3.035156 -6.367188 2.78125 -5.640625 2.78125 -4.765625 L 2.78125 0 L 1.421875 0 L 1.421875 -8.890625 L 2.53125 -8.890625 L 2.6875 -7.25 L 2.75 -7.25 C 3.082031 -7.820312 3.476562 -8.265625 3.9375 -8.578125 C 4.40625 -8.890625 4.921875 -9.046875 5.484375 -9.046875 Z M 5.484375 -9.046875 "/></g></g></g><g fill="#000000" fill-opacity="1"><g transform="translate(200.833035, 238.789096)"><g><path d="M 12.75 0 L 12.75 -5.78125 C 12.75 -6.488281 12.597656 -7.019531 12.296875 -7.375 C 11.992188 -7.726562 11.523438 -7.90625 10.890625 -7.90625 C 10.054688 -7.90625 9.4375 -7.664062 9.03125 -7.1875 C 8.632812 -6.707031 8.4375 -5.96875 8.4375 -4.96875 L 8.4375 0 L 7.09375 0 L 7.09375 -5.78125 C 7.09375 -6.488281 6.941406 -7.019531 6.640625 -7.375 C 6.335938 -7.726562 5.863281 -7.90625 5.21875 -7.90625 C 4.375 -7.90625 3.753906 -7.648438 3.359375 -7.140625 C 2.972656 -6.640625 2.78125 -5.8125 2.78125 -4.65625 L 2.78125 0 L 1.421875 0 L 1.421875 -8.890625 L 2.515625 -8.890625 L 2.734375 -7.671875 L 2.8125 -7.671875 C 3.0625 -8.109375 3.414062 -8.445312 3.875 -8.6875 C 4.34375 -8.925781 4.863281 -9.046875 5.4375 -9.046875 C 6.820312 -9.046875 7.726562 -8.546875 8.15625 -7.546875 L 8.21875 -7.546875 C 8.488281 -8.003906 8.875 -8.367188 9.375 -8.640625 C 9.875 -8.910156 10.445312 -9.046875 11.09375 -9.046875 C 12.101562 -9.046875 12.859375 -8.785156 13.359375 -8.265625 C 13.859375 -7.753906 14.109375 -6.929688 14.109375 -5.796875 L 14.109375 0 Z M 12.75 0 "/></g></g></g><g fill="#000000" fill-opacity="1"><g transform="translate(217.102846, 238.789096)"><g><path d="M 5.1875 0.15625 C 3.875 0.15625 2.835938 -0.238281 2.078125 -1.03125 C 1.316406 -1.832031 0.9375 -2.945312 0.9375 -4.375 C 0.9375 -5.800781 1.285156 -6.9375 1.984375 -7.78125 C 2.691406 -8.625 3.640625 -9.046875 4.828125 -9.046875 C 5.941406 -9.046875 6.820312 -8.679688 7.46875 -7.953125 C 8.125 -7.222656 8.453125 -6.253906 8.453125 -5.046875 L 8.453125 -4.203125 L 2.328125 -4.203125 C 2.359375 -3.160156 2.625 -2.367188 3.125 -1.828125 C 3.625 -1.285156 4.328125 -1.015625 5.234375 -1.015625 C 6.191406 -1.015625 7.132812 -1.210938 8.0625 -1.609375 L 8.0625 -0.40625 C 7.59375 -0.207031 7.144531 -0.0664062 6.71875 0.015625 C 6.289062 0.109375 5.78125 0.15625 5.1875 0.15625 Z M 4.8125 -7.921875 C 4.101562 -7.921875 3.535156 -7.6875 3.109375 -7.21875 C 2.679688 -6.757812 2.429688 -6.117188 2.359375 -5.296875 L 7 -5.296875 C 7 -6.140625 6.8125 -6.785156 6.4375 -7.234375 C 6.0625 -7.691406 5.519531 -7.921875 4.8125 -7.921875 Z M 4.8125 -7.921875 "/></g></g></g><g fill="#000000" fill-opacity="1"><g transform="translate(227.245509, 238.789096)"><g><path d="M 7.515625 0 L 7.515625 -5.75 C 7.515625 -6.476562 7.347656 -7.019531 7.015625 -7.375 C 6.679688 -7.726562 6.164062 -7.90625 5.46875 -7.90625 C 4.539062 -7.90625 3.859375 -7.65625 3.421875 -7.15625 C 2.992188 -6.65625 2.78125 -5.820312 2.78125 -4.65625 L 2.78125 0 L 1.421875 0 L 1.421875 -8.890625 L 2.515625 -8.890625 L 2.734375 -7.671875 L 2.8125 -7.671875 C 3.082031 -8.109375 3.46875 -8.445312 3.96875 -8.6875 C 4.46875 -8.925781 5.019531 -9.046875 5.625 -9.046875 C 6.695312 -9.046875 7.503906 -8.785156 8.046875 -8.265625 C 8.585938 -7.753906 8.859375 -6.929688 8.859375 -5.796875 L 8.859375 0 Z M 7.515625 0 "/></g></g></g><g fill="#000000" fill-opacity="1"><g transform="translate(238.263479, 238.789096)"><g><path d="M 4.296875 -0.953125 C 4.535156 -0.953125 4.765625 -0.96875 4.984375 -1 C 5.203125 -1.03125 5.378906 -1.066406 5.515625 -1.109375 L 5.515625 -0.078125 C 5.367188 -0.00390625 5.148438 0.0507812 4.859375 0.09375 C 4.578125 0.132812 4.328125 0.15625 4.109375 0.15625 C 2.390625 0.15625 1.53125 -0.742188 1.53125 -2.546875 L 1.53125 -7.84375 L 0.25 -7.84375 L 0.25 -8.484375 L 1.53125 -9.046875 L 2.09375 -10.953125 L 2.875 -10.953125 L 2.875 -8.890625 L 5.453125 -8.890625 L 5.453125 -7.84375 L 2.875 -7.84375 L 2.875 -2.609375 C 2.875 -2.078125 3 -1.664062 3.25 -1.375 C 3.507812 -1.09375 3.859375 -0.953125 4.296875 -0.953125 Z M 4.296875 -0.953125 "/></g></g></g><g fill="#000000" fill-opacity="1"><g transform="translate(244.953543, 238.789096)"><g/></g></g><g fill="#000000" fill-opacity="1"><g transform="translate(250.095611, 238.789096)"><g><path d="M 5.5625 -9.03125 C 6.726562 -9.03125 7.632812 -8.628906 8.28125 -7.828125 C 8.925781 -7.035156 9.25 -5.910156 9.25 -4.453125 C 9.25 -2.992188 8.921875 -1.859375 8.265625 -1.046875 C 7.617188 -0.242188 6.71875 0.15625 5.5625 0.15625 C 4.988281 0.15625 4.460938 0.0507812 3.984375 -0.15625 C 3.503906 -0.375 3.101562 -0.703125 2.78125 -1.140625 L 2.671875 -1.140625 L 2.390625 0 L 1.421875 0 L 1.421875 -12.625 L 2.78125 -12.625 L 2.78125 -9.546875 C 2.78125 -8.867188 2.753906 -8.253906 2.703125 -7.703125 L 2.78125 -7.703125 C 3.40625 -8.585938 4.332031 -9.03125 5.5625 -9.03125 Z M 5.375 -7.90625 C 4.445312 -7.90625 3.78125 -7.640625 3.375 -7.109375 C 2.976562 -6.585938 2.78125 -5.703125 2.78125 -4.453125 C 2.78125 -3.203125 2.984375 -2.304688 3.390625 -1.765625 C 3.804688 -1.234375 4.476562 -0.96875 5.40625 -0.96875 C 6.226562 -0.96875 6.84375 -1.269531 7.25 -1.875 C 7.65625 -2.476562 7.859375 -3.34375 7.859375 -4.46875 C 7.859375 -5.625 7.65625 -6.484375 7.25 -7.046875 C 6.84375 -7.617188 6.21875 -7.90625 5.375 -7.90625 Z M 5.375 -7.90625 "/></g></g></g><g fill="#000000" fill-opacity="1"><g transform="translate(261.097372, 238.789096)"><g><path d="M 6.890625 0 L 6.625 -1.265625 L 6.5625 -1.265625 C 6.113281 -0.710938 5.671875 -0.335938 5.234375 -0.140625 C 4.796875 0.0546875 4.242188 0.15625 3.578125 0.15625 C 2.703125 0.15625 2.015625 -0.0664062 1.515625 -0.515625 C 1.015625 -0.972656 0.765625 -1.617188 0.765625 -2.453125 C 0.765625 -4.253906 2.195312 -5.195312 5.0625 -5.28125 L 6.578125 -5.328125 L 6.578125 -5.875 C 6.578125 -6.570312 6.425781 -7.085938 6.125 -7.421875 C 5.820312 -7.753906 5.34375 -7.921875 4.6875 -7.921875 C 3.945312 -7.921875 3.109375 -7.695312 2.171875 -7.25 L 1.765625 -8.265625 C 2.203125 -8.503906 2.679688 -8.691406 3.203125 -8.828125 C 3.722656 -8.960938 4.242188 -9.03125 4.765625 -9.03125 C 5.828125 -9.03125 6.613281 -8.796875 7.125 -8.328125 C 7.632812 -7.859375 7.890625 -7.101562 7.890625 -6.0625 L 7.890625 0 Z M 3.859375 -0.953125 C 4.691406 -0.953125 5.347656 -1.179688 5.828125 -1.640625 C 6.304688 -2.097656 6.546875 -2.738281 6.546875 -3.5625 L 6.546875 -4.375 L 5.203125 -4.3125 C 4.128906 -4.269531 3.351562 -4.101562 2.875 -3.8125 C 2.40625 -3.519531 2.171875 -3.0625 2.171875 -2.4375 C 2.171875 -1.957031 2.316406 -1.585938 2.609375 -1.328125 C 2.910156 -1.078125 3.328125 -0.953125 3.859375 -0.953125 Z M 3.859375 -0.953125 "/></g></g></g><g fill="#000000" fill-opacity="1"><g transform="translate(271.158989, 238.789096)"><g><path d="M 7.15625 -2.421875 C 7.15625 -1.597656 6.847656 -0.960938 6.234375 -0.515625 C 5.617188 -0.0664062 4.753906 0.15625 3.640625 0.15625 C 2.460938 0.15625 1.546875 -0.0234375 0.890625 -0.390625 L 0.890625 -1.640625 C 1.316406 -1.429688 1.773438 -1.265625 2.265625 -1.140625 C 2.753906 -1.015625 3.222656 -0.953125 3.671875 -0.953125 C 4.378906 -0.953125 4.921875 -1.0625 5.296875 -1.28125 C 5.671875 -1.507812 5.859375 -1.851562 5.859375 -2.3125 C 5.859375 -2.65625 5.707031 -2.945312 5.40625 -3.1875 C 5.113281 -3.4375 4.53125 -3.734375 3.65625 -4.078125 C 2.832031 -4.378906 2.242188 -4.644531 1.890625 -4.875 C 1.546875 -5.101562 1.285156 -5.363281 1.109375 -5.65625 C 0.941406 -5.945312 0.859375 -6.296875 0.859375 -6.703125 C 0.859375 -7.429688 1.148438 -8.003906 1.734375 -8.421875 C 2.328125 -8.835938 3.140625 -9.046875 4.171875 -9.046875 C 5.128906 -9.046875 6.0625 -8.851562 6.96875 -8.46875 L 6.5 -7.375 C 5.601562 -7.738281 4.796875 -7.921875 4.078125 -7.921875 C 3.429688 -7.921875 2.945312 -7.820312 2.625 -7.625 C 2.300781 -7.425781 2.140625 -7.148438 2.140625 -6.796875 C 2.140625 -6.554688 2.195312 -6.351562 2.3125 -6.1875 C 2.4375 -6.019531 2.632812 -5.859375 2.90625 -5.703125 C 3.175781 -5.554688 3.695312 -5.335938 4.46875 -5.046875 C 5.519531 -4.671875 6.226562 -4.285156 6.59375 -3.890625 C 6.96875 -3.503906 7.15625 -3.015625 7.15625 -2.421875 Z M 7.15625 -2.421875 "/></g></g></g><g fill="#000000" fill-opacity="1"><g transform="translate(279.907645, 238.789096)"><g><path d="M 5.1875 0.15625 C 3.875 0.15625 2.835938 -0.238281 2.078125 -1.03125 C 1.316406 -1.832031 0.9375 -2.945312 0.9375 -4.375 C 0.9375 -5.800781 1.285156 -6.9375 1.984375 -7.78125 C 2.691406 -8.625 3.640625 -9.046875 4.828125 -9.046875 C 5.941406 -9.046875 6.820312 -8.679688 7.46875 -7.953125 C 8.125 -7.222656 8.453125 -6.253906 8.453125 -5.046875 L 8.453125 -4.203125 L 2.328125 -4.203125 C 2.359375 -3.160156 2.625 -2.367188 3.125 -1.828125 C 3.625 -1.285156 4.328125 -1.015625 5.234375 -1.015625 C 6.191406 -1.015625 7.132812 -1.210938 8.0625 -1.609375 L 8.0625 -0.40625 C 7.59375 -0.207031 7.144531 -0.0664062 6.71875 0.015625 C 6.289062 0.109375 5.78125 0.15625 5.1875 0.15625 Z M 4.8125 -7.921875 C 4.101562 -7.921875 3.535156 -7.6875 3.109375 -7.21875 C 2.679688 -6.757812 2.429688 -6.117188 2.359375 -5.296875 L 7 -5.296875 C 7 -6.140625 6.8125 -6.785156 6.4375 -7.234375 C 6.0625 -7.691406 5.519531 -7.921875 4.8125 -7.921875 Z M 4.8125 -7.921875 "/></g></g></g><g fill="#000000" fill-opacity="1"><g transform="translate(290.050308, 238.789096)"><g><path d="M 7.484375 -1.1875 L 7.40625 -1.1875 C 6.78125 -0.289062 5.847656 0.15625 4.609375 0.15625 C 3.453125 0.15625 2.550781 -0.238281 1.90625 -1.03125 C 1.257812 -1.820312 0.9375 -2.953125 0.9375 -4.421875 C 0.9375 -5.890625 1.257812 -7.023438 1.90625 -7.828125 C 2.550781 -8.640625 3.453125 -9.046875 4.609375 -9.046875 C 5.816406 -9.046875 6.742188 -8.609375 7.390625 -7.734375 L 7.5 -7.734375 L 7.4375 -8.375 L 7.40625 -9 L 7.40625 -12.625 L 8.75 -12.625 L 8.75 0 L 7.65625 0 Z M 4.78125 -0.96875 C 5.695312 -0.96875 6.363281 -1.21875 6.78125 -1.71875 C 7.195312 -2.21875 7.40625 -3.023438 7.40625 -4.140625 L 7.40625 -4.421875 C 7.40625 -5.679688 7.191406 -6.578125 6.765625 -7.109375 C 6.347656 -7.648438 5.679688 -7.921875 4.765625 -7.921875 C 3.972656 -7.921875 3.367188 -7.613281 2.953125 -7 C 2.535156 -6.382812 2.328125 -5.519531 2.328125 -4.40625 C 2.328125 -3.269531 2.535156 -2.410156 2.953125 -1.828125 C 3.367188 -1.253906 3.976562 -0.96875 4.78125 -0.96875 Z M 4.78125 -0.96875 "/></g></g></g><g fill="#000000" fill-opacity="1"><g transform="translate(301.052069, 238.789096)"><g/></g></g><g fill="#000000" fill-opacity="1"><g transform="translate(306.194137, 238.789096)"><g><path d="M 9.09375 -4.453125 C 9.09375 -3.003906 8.726562 -1.875 8 -1.0625 C 7.269531 -0.25 6.265625 0.15625 4.984375 0.15625 C 4.179688 0.15625 3.472656 -0.0234375 2.859375 -0.390625 C 2.242188 -0.765625 1.769531 -1.300781 1.4375 -2 C 1.101562 -2.695312 0.9375 -3.515625 0.9375 -4.453125 C 0.9375 -5.898438 1.296875 -7.023438 2.015625 -7.828125 C 2.742188 -8.640625 3.75 -9.046875 5.03125 -9.046875 C 6.28125 -9.046875 7.269531 -8.628906 8 -7.796875 C 8.726562 -6.972656 9.09375 -5.859375 9.09375 -4.453125 Z M 2.328125 -4.453125 C 2.328125 -3.316406 2.550781 -2.453125 3 -1.859375 C 3.457031 -1.265625 4.128906 -0.96875 5.015625 -0.96875 C 5.890625 -0.96875 6.554688 -1.257812 7.015625 -1.84375 C 7.472656 -2.4375 7.703125 -3.304688 7.703125 -4.453125 C 7.703125 -5.578125 7.472656 -6.429688 7.015625 -7.015625 C 6.554688 -7.609375 5.882812 -7.90625 5 -7.90625 C 4.113281 -7.90625 3.445312 -7.613281 3 -7.03125 C 2.550781 -6.457031 2.328125 -5.597656 2.328125 -4.453125 Z M 2.328125 -4.453125 "/></g></g></g><g fill="#000000" fill-opacity="1"><g transform="translate(317.050026, 238.789096)"><g><path d="M 7.515625 0 L 7.515625 -5.75 C 7.515625 -6.476562 7.347656 -7.019531 7.015625 -7.375 C 6.679688 -7.726562 6.164062 -7.90625 5.46875 -7.90625 C 4.539062 -7.90625 3.859375 -7.65625 3.421875 -7.15625 C 2.992188 -6.65625 2.78125 -5.820312 2.78125 -4.65625 L 2.78125 0 L 1.421875 0 L 1.421875 -8.890625 L 2.515625 -8.890625 L 2.734375 -7.671875 L 2.8125 -7.671875 C 3.082031 -8.109375 3.46875 -8.445312 3.96875 -8.6875 C 4.46875 -8.925781 5.019531 -9.046875 5.625 -9.046875 C 6.695312 -9.046875 7.503906 -8.785156 8.046875 -8.265625 C 8.585938 -7.753906 8.859375 -6.929688 8.859375 -5.796875 L 8.859375 0 Z M 7.515625 0 "/></g></g></g><g fill="#000000" fill-opacity="1"><g transform="translate(328.067983, 238.789096)"><g/></g></g><g fill="#000000" fill-opacity="1"><g transform="translate(333.210051, 238.789096)"><g><path d="M 5.28125 0 L 3.90625 0 L 3.90625 -10.625 L 0.140625 -10.625 L 0.140625 -11.859375 L 9.03125 -11.859375 L 9.03125 -10.625 L 5.28125 -10.625 Z M 5.28125 0 "/></g></g></g><g fill="#000000" fill-opacity="1"><g transform="translate(343.223053, 238.789096)"><g><path d="M 5.1875 0.15625 C 3.875 0.15625 2.835938 -0.238281 2.078125 -1.03125 C 1.316406 -1.832031 0.9375 -2.945312 0.9375 -4.375 C 0.9375 -5.800781 1.285156 -6.9375 1.984375 -7.78125 C 2.691406 -8.625 3.640625 -9.046875 4.828125 -9.046875 C 5.941406 -9.046875 6.820312 -8.679688 7.46875 -7.953125 C 8.125 -7.222656 8.453125 -6.253906 8.453125 -5.046875 L 8.453125 -4.203125 L 2.328125 -4.203125 C 2.359375 -3.160156 2.625 -2.367188 3.125 -1.828125 C 3.625 -1.285156 4.328125 -1.015625 5.234375 -1.015625 C 6.191406 -1.015625 7.132812 -1.210938 8.0625 -1.609375 L 8.0625 -0.40625 C 7.59375 -0.207031 7.144531 -0.0664062 6.71875 0.015625 C 6.289062 0.109375 5.78125 0.15625 5.1875 0.15625 Z M 4.8125 -7.921875 C 4.101562 -7.921875 3.535156 -7.6875 3.109375 -7.21875 C 2.679688 -6.757812 2.429688 -6.117188 2.359375 -5.296875 L 7 -5.296875 C 7 -6.140625 6.8125 -6.785156 6.4375 -7.234375 C 6.0625 -7.691406 5.519531 -7.921875 4.8125 -7.921875 Z M 4.8125 -7.921875 "/></g></g></g><g fill="#000000" fill-opacity="1"><g transform="translate(353.365703, 238.789096)"><g><path d="M 4.984375 0.15625 C 3.691406 0.15625 2.691406 -0.238281 1.984375 -1.03125 C 1.285156 -1.820312 0.9375 -2.941406 0.9375 -4.390625 C 0.9375 -5.878906 1.289062 -7.023438 2 -7.828125 C 2.71875 -8.640625 3.738281 -9.046875 5.0625 -9.046875 C 5.488281 -9.046875 5.914062 -9 6.34375 -8.90625 C 6.769531 -8.820312 7.109375 -8.71875 7.359375 -8.59375 L 6.9375 -7.4375 C 6.644531 -7.5625 6.320312 -7.660156 5.96875 -7.734375 C 5.613281 -7.816406 5.300781 -7.859375 5.03125 -7.859375 C 3.226562 -7.859375 2.328125 -6.707031 2.328125 -4.40625 C 2.328125 -3.3125 2.546875 -2.472656 2.984375 -1.890625 C 3.429688 -1.304688 4.085938 -1.015625 4.953125 -1.015625 C 5.691406 -1.015625 6.445312 -1.175781 7.21875 -1.5 L 7.21875 -0.296875 C 6.625 0.00390625 5.878906 0.15625 4.984375 0.15625 Z M 4.984375 0.15625 "/></g></g></g><g fill="#000000" fill-opacity="1"><g transform="translate(362.098163, 238.789096)"><g><path d="M 7.515625 0 L 7.515625 -5.75 C 7.515625 -6.476562 7.347656 -7.019531 7.015625 -7.375 C 6.679688 -7.726562 6.164062 -7.90625 5.46875 -7.90625 C 4.53125 -7.90625 3.847656 -7.648438 3.421875 -7.140625 C 2.992188 -6.628906 2.78125 -5.796875 2.78125 -4.640625 L 2.78125 0 L 1.421875 0 L 1.421875 -12.625 L 2.78125 -12.625 L 2.78125 -8.796875 C 2.78125 -8.335938 2.753906 -7.957031 2.703125 -7.65625 L 2.796875 -7.65625 C 3.054688 -8.082031 3.429688 -8.414062 3.921875 -8.65625 C 4.410156 -8.90625 4.96875 -9.03125 5.59375 -9.03125 C 6.675781 -9.03125 7.488281 -8.769531 8.03125 -8.25 C 8.582031 -7.738281 8.859375 -6.921875 8.859375 -5.796875 L 8.859375 0 Z M 7.515625 0 "/></g></g></g><g fill="#000000" fill-opacity="1"><g transform="translate(373.11612, 238.789096)"><g><path d="M 7.515625 0 L 7.515625 -5.75 C 7.515625 -6.476562 7.347656 -7.019531 7.015625 -7.375 C 6.679688 -7.726562 6.164062 -7.90625 5.46875 -7.90625 C 4.539062 -7.90625 3.859375 -7.65625 3.421875 -7.15625 C 2.992188 -6.65625 2.78125 -5.820312 2.78125 -4.65625 L 2.78125 0 L 1.421875 0 L 1.421875 -8.890625 L 2.515625 -8.890625 L 2.734375 -7.671875 L 2.8125 -7.671875 C 3.082031 -8.109375 3.46875 -8.445312 3.96875 -8.6875 C 4.46875 -8.925781 5.019531 -9.046875 5.625 -9.046875 C 6.695312 -9.046875 7.503906 -8.785156 8.046875 -8.265625 C 8.585938 -7.753906 8.859375 -6.929688 8.859375 -5.796875 L 8.859375 0 Z M 7.515625 0 "/></g></g></g><g fill="#000000" fill-opacity="1"><g transform="translate(384.134076, 238.789096)"><g><path d="M 9.09375 -4.453125 C 9.09375 -3.003906 8.726562 -1.875 8 -1.0625 C 7.269531 -0.25 6.265625 0.15625 4.984375 0.15625 C 4.179688 0.15625 3.472656 -0.0234375 2.859375 -0.390625 C 2.242188 -0.765625 1.769531 -1.300781 1.4375 -2 C 1.101562 -2.695312 0.9375 -3.515625 0.9375 -4.453125 C 0.9375 -5.898438 1.296875 -7.023438 2.015625 -7.828125 C 2.742188 -8.640625 3.75 -9.046875 5.03125 -9.046875 C 6.28125 -9.046875 7.269531 -8.628906 8 -7.796875 C 8.726562 -6.972656 9.09375 -5.859375 9.09375 -4.453125 Z M 2.328125 -4.453125 C 2.328125 -3.316406 2.550781 -2.453125 3 -1.859375 C 3.457031 -1.265625 4.128906 -0.96875 5.015625 -0.96875 C 5.890625 -0.96875 6.554688 -1.257812 7.015625 -1.84375 C 7.472656 -2.4375 7.703125 -3.304688 7.703125 -4.453125 C 7.703125 -5.578125 7.472656 -6.429688 7.015625 -7.015625 C 6.554688 -7.609375 5.882812 -7.90625 5 -7.90625 C 4.113281 -7.90625 3.445312 -7.613281 3 -7.03125 C 2.550781 -6.457031 2.328125 -5.597656 2.328125 -4.453125 Z M 2.328125 -4.453125 "/></g></g></g><g fill="#000000" fill-opacity="1"><g transform="translate(394.989966, 238.789096)"><g><path d="M 2.78125 0 L 1.421875 0 L 1.421875 -12.625 L 2.78125 -12.625 Z M 2.78125 0 "/></g></g></g><g fill="#000000" fill-opacity="1"><g transform="translate(400.018568, 238.789096)"><g><path d="M 9.09375 -4.453125 C 9.09375 -3.003906 8.726562 -1.875 8 -1.0625 C 7.269531 -0.25 6.265625 0.15625 4.984375 0.15625 C 4.179688 0.15625 3.472656 -0.0234375 2.859375 -0.390625 C 2.242188 -0.765625 1.769531 -1.300781 1.4375 -2 C 1.101562 -2.695312 0.9375 -3.515625 0.9375 -4.453125 C 0.9375 -5.898438 1.296875 -7.023438 2.015625 -7.828125 C 2.742188 -8.640625 3.75 -9.046875 5.03125 -9.046875 C 6.28125 -9.046875 7.269531 -8.628906 8 -7.796875 C 8.726562 -6.972656 9.09375 -5.859375 9.09375 -4.453125 Z M 2.328125 -4.453125 C 2.328125 -3.316406 2.550781 -2.453125 3 -1.859375 C 3.457031 -1.265625 4.128906 -0.96875 5.015625 -0.96875 C 5.890625 -0.96875 6.554688 -1.257812 7.015625 -1.84375 C 7.472656 -2.4375 7.703125 -3.304688 7.703125 -4.453125 C 7.703125 -5.578125 7.472656 -6.429688 7.015625 -7.015625 C 6.554688 -7.609375 5.882812 -7.90625 5 -7.90625 C 4.113281 -7.90625 3.445312 -7.613281 3 -7.03125 C 2.550781 -6.457031 2.328125 -5.597656 2.328125 -4.453125 Z M 2.328125 -4.453125 "/></g></g></g><g fill="#000000" fill-opacity="1"><g transform="translate(410.874458, 238.789096)"><g><path d="M 8.703125 -8.890625 L 8.703125 -8.03125 L 7.0625 -7.84375 C 7.207031 -7.65625 7.335938 -7.40625 7.453125 -7.09375 C 7.578125 -6.789062 7.640625 -6.445312 7.640625 -6.0625 C 7.640625 -5.195312 7.34375 -4.503906 6.75 -3.984375 C 6.15625 -3.460938 5.335938 -3.203125 4.296875 -3.203125 C 4.035156 -3.203125 3.785156 -3.222656 3.546875 -3.265625 C 2.972656 -2.960938 2.6875 -2.582031 2.6875 -2.125 C 2.6875 -1.882812 2.785156 -1.703125 2.984375 -1.578125 C 3.191406 -1.460938 3.535156 -1.40625 4.015625 -1.40625 L 5.59375 -1.40625 C 6.5625 -1.40625 7.300781 -1.203125 7.8125 -0.796875 C 8.332031 -0.390625 8.59375 0.195312 8.59375 0.96875 C 8.59375 1.945312 8.195312 2.691406 7.40625 3.203125 C 6.613281 3.722656 5.460938 3.984375 3.953125 3.984375 C 2.785156 3.984375 1.882812 3.765625 1.25 3.328125 C 0.625 2.898438 0.3125 2.296875 0.3125 1.515625 C 0.3125 0.972656 0.484375 0.503906 0.828125 0.109375 C 1.179688 -0.285156 1.671875 -0.554688 2.296875 -0.703125 C 2.066406 -0.796875 1.875 -0.953125 1.71875 -1.171875 C 1.570312 -1.390625 1.5 -1.644531 1.5 -1.9375 C 1.5 -2.257812 1.582031 -2.539062 1.75 -2.78125 C 1.925781 -3.019531 2.203125 -3.253906 2.578125 -3.484375 C 2.109375 -3.671875 1.726562 -3.992188 1.4375 -4.453125 C 1.15625 -4.910156 1.015625 -5.429688 1.015625 -6.015625 C 1.015625 -6.984375 1.304688 -7.726562 1.890625 -8.25 C 2.472656 -8.78125 3.300781 -9.046875 4.375 -9.046875 C 4.832031 -9.046875 5.25 -8.992188 5.625 -8.890625 Z M 1.609375 1.5 C 1.609375 1.976562 1.8125 2.335938 2.21875 2.578125 C 2.625 2.828125 3.207031 2.953125 3.96875 2.953125 C 5.09375 2.953125 5.925781 2.785156 6.46875 2.453125 C 7.019531 2.117188 7.296875 1.660156 7.296875 1.078125 C 7.296875 0.597656 7.144531 0.265625 6.84375 0.078125 C 6.550781 -0.109375 5.992188 -0.203125 5.171875 -0.203125 L 3.546875 -0.203125 C 2.941406 -0.203125 2.46875 -0.0546875 2.125 0.234375 C 1.78125 0.523438 1.609375 0.945312 1.609375 1.5 Z M 2.34375 -6.046875 C 2.34375 -5.421875 2.515625 -4.945312 2.859375 -4.625 C 3.210938 -4.3125 3.707031 -4.15625 4.34375 -4.15625 C 5.65625 -4.15625 6.3125 -4.789062 6.3125 -6.0625 C 6.3125 -7.394531 5.644531 -8.0625 4.3125 -8.0625 C 3.675781 -8.0625 3.1875 -7.890625 2.84375 -7.546875 C 2.507812 -7.210938 2.34375 -6.710938 2.34375 -6.046875 Z M 2.34375 -6.046875 "/></g></g></g><g fill="#000000" fill-opacity="1"><g transform="translate(420.798295, 238.789096)"><g><path d="M 0.015625 -8.890625 L 1.453125 -8.890625 L 3.40625 -3.8125 C 3.832031 -2.65625 4.097656 -1.820312 4.203125 -1.3125 L 4.265625 -1.3125 C 4.335938 -1.59375 4.484375 -2.066406 4.703125 -2.734375 C 4.929688 -3.398438 5.664062 -5.453125 6.90625 -8.890625 L 8.359375 -8.890625 L 4.53125 1.234375 C 4.15625 2.234375 3.710938 2.941406 3.203125 3.359375 C 2.703125 3.773438 2.082031 3.984375 1.34375 3.984375 C 0.9375 3.984375 0.53125 3.941406 0.125 3.859375 L 0.125 2.78125 C 0.425781 2.84375 0.757812 2.875 1.125 2.875 C 2.050781 2.875 2.710938 2.351562 3.109375 1.3125 L 3.59375 0.046875 Z M 0.015625 -8.890625 "/></g></g></g></g></g></g></svg>